<svg version="1.2" xmlns="http://www.w3.org/2000/svg" viewBox="0 0 244 59" width="244" height="59"><defs><clipPath clipPathUnits="userSpaceOnUse" id="cp1"><path d="m233.69 15.27v17.2h-37.59v-17.2z"/></clipPath><clipPath clipPathUnits="userSpaceOnUse" id="cp2"><path d="m224.57 18.33v17h-15.78v-17z"/></clipPath><clipPath clipPathUnits="userSpaceOnUse" id="cp3"><path d="m228.61 24.2v7.5h-5.27v-7.5z"/></clipPath><clipPath clipPathUnits="userSpaceOnUse" id="cp4"><path d="m228.75 24.17v7.63h-5.51v-7.63z"/></clipPath><clipPath clipPathUnits="userSpaceOnUse" id="cp5"><path d="m209.52 41.6v1.17h-2.2v-1.17z"/></clipPath><clipPath clipPathUnits="userSpaceOnUse" id="cp6"><path d="m209.59 41.4v1.57h-2.54v-1.57z"/></clipPath><clipPath clipPathUnits="userSpaceOnUse" id="cp7"><path d="m201.64 31.1v2.17h-1.83v-2.17z"/></clipPath><clipPath clipPathUnits="userSpaceOnUse" id="cp8"><path d="m222.17 43.3v0.83h-1.9v-0.83z"/></clipPath><clipPath clipPathUnits="userSpaceOnUse" id="cp9"><path d="m222.27 43.13v1.2h-2.24v-1.2z"/></clipPath><clipPath clipPathUnits="userSpaceOnUse" id="cp10"><path d="m199.97 30.93v2.1h-1.53v-2.1z"/></clipPath><clipPath clipPathUnits="userSpaceOnUse" id="cp11"><path d="m233.02 23v24.4h-36.45v-24.4z"/></clipPath></defs><style>.a{fill:#a5a09e}.b{fill:#a7a9ac}.c{fill:none;stroke:#a7a9ac;stroke-miterlimit:2.613;stroke-width:.4}.d{fill:#353434}.e{fill:#fff}.f{fill:#cc3634}.g{fill:#ec6525}.h{fill:#bd2629}.i{fill:#020202}.j{opacity:.8;fill:#fff}</style><path fill-rule="evenodd" class="a" d="m224.7 33.2l0.2 0.9c0 0.2 0 0.7 0.1 0.9 0.4-0.2 0.3-0.5 0.6-1.5 0.2-0.1 0.2 0 0.5-0.1l-0.3 0.3 0.2 1.3c0.3-0.2 0.3-1.5 0.6-2.3 0.1-0.4 0.1-0.1 0.5-0.4-0.6 0.1-2 0.7-2.4 0.9z"/><path class="a" d="m224.7 34.1l-0.2-0.8-0.1-0.1 0.2-0.1c0.3-0.2 1.1-0.6 1.7-0.8q0.3 0 0.4-0.1c0.1 0 0.2 0 0.3 0h0.1l0.1 0.3c-0.2 0.1-0.3 0.2-0.4 0.2 0 0 0 0-0.1 0.1-0.1 0.3-0.2 0.8-0.2 1.2-0.1 0.5-0.1 1-0.4 1.2l-0.2 0.2-0.1-0.3-0.2-1v0.2c-0.1 0.5-0.2 0.7-0.5 0.9h-0.1l-0.1-0.1c-0.2-0.2-0.2-0.6-0.2-0.9zm0.2-0.8l0.2 0.7v0.1 0.1q0 0.2 0 0.4c0.1-0.1 0.1-0.2 0.2-0.4 0-0.2 0.1-0.4 0.1-0.7l0.1-0.1 0.1-0.1c0.1 0 0.1 0 0.2 0 0 0 0.1 0 0.3-0.1l0.1 0.3c0-0.3 0.1-0.6 0.2-0.8-0.6 0.2-1.2 0.4-1.5 0.6zm1.3 0.3l-0.2 0.2 0.1 0.5c0-0.1 0-0.2 0.1-0.4q0-0.1 0-0.3z"/><path fill-rule="evenodd" class="a" d="m226.9 33.2c0 0.5-0.1 0.4 0 0.7 0.2 0.7 0.1 0.9 0.5 1.5 0.1 0.3 0.2 0.5 0.3 0.5 0.2-0.7 0.2-1.2 0.4-1.9-0.3-0.1-0.3 0-0.5 0 0.1-0.1 0.3-0.2 0.4-0.3 0 0 0 0 0.1 0l0.1-0.1c0.5-0.5 0.5-0.2 1.1-0.6 0 0 0-0.1 0.1-0.1l-1.9 0.6c0.2-0.4 0.7-0.5 1.1-0.7-0.6-0.1-1.1 0.3-1.7 0.4z"/><path class="b" d="m226.7 33.5c0-0.1 0-0.2 0-0.3l0.1-0.1h0.1c0.2-0.1 0.4-0.2 0.6-0.2 0.3-0.2 0.7-0.3 1.1-0.3l0.1 0.3 0.6-0.1 0.2 0.3c-0.1 0-0.1 0-0.1 0.1-0.3 0.2-0.5 0.2-0.6 0.3-0.2 0-0.3 0.1-0.5 0.3l-0.1 0.1h-0.1 0.1l0.1 0.1v0.1c-0.1 0.4-0.2 0.7-0.2 1-0.1 0.3-0.1 0.6-0.2 0.8v0.2h-0.2c-0.2 0-0.3-0.2-0.4-0.4l-0.1-0.1v-0.1c-0.2-0.4-0.3-0.6-0.3-0.9q-0.1-0.2-0.2-0.6c0-0.3 0-0.3 0-0.5zm0.4-0.1v0.1c-0.1 0.2-0.1 0.2 0 0.4 0.1 0.2 0.1 0.4 0.1 0.6 0.1 0.2 0.1 0.4 0.3 0.8v0.1l0.1 0.1c0.1-0.2 0.1-0.3 0.1-0.5 0-0.3 0.1-0.5 0.2-0.8-0.1 0-0.1 0-0.1 0-0.1 0-0.1 0-0.3 0v-0.4c0 0 0.1-0.1 0.2-0.1q0.1 0 0.2-0.1v-0.1l-0.4 0.2-0.4 0.1 0.2-0.4c0 0 0 0 0-0.1q-0.1 0-0.2 0.1z"/><path fill-rule="evenodd" class="a" d="m229.7 34.6c0.2-0.1 0.2-0.1 0.5-0.2-0.2 0.4-0.8 0.5-0.3 1.4 0.2 0.4 0 0.1 0.2 0.3 0.1-0.5 0.1-2.5 1-2l-0.2 0.2c0 0 0 0-0.1 0-0.2 0.2-0.1 0-0.3 0.2l0.1 1.2c0.1 0.3-0.1 0.1 0.2 0.3 0.2-0.4 0.1-0.3 0.3-1.2 0.1-0.4 0.2-0.8 0.3-1.1-0.5 0.1-0.6 0.1-1 0.3-0.5 0.2-0.8 0.1-0.7 0.6z"/><path class="a" d="m229.7 35.9c-0.3-0.6-0.3-0.9-0.1-1.1l-0.1 0.1v-0.3c0-0.5 0.1-0.6 0.5-0.7q0.2 0 0.3-0.1c0.3-0.1 0.4-0.1 0.6-0.2 0.1 0 0.3-0.1 0.5-0.1h0.3l-0.1 0.2q0 0.2-0.1 0.5c-0.1 0.2-0.1 0.5-0.2 0.7-0.1 0.4-0.1 0.6-0.1 0.7 0 0.2-0.1 0.3-0.1 0.5l-0.1 0.1-0.2-0.1q0 0-0.1 0 0 0-0.1-0.1c0-0.1 0-0.1 0-0.1 0 0 0-0.1-0.1-0.2v-0.4q-0.1 0.2-0.1 0.3c0 0.2 0 0.4 0 0.5l-0.1 0.1c0.4 1 0.4 1.5 0.2 1.4q0 0.1 0 0c-0.2-0.2-0.5-0.7-0.6-1.6-0.1 0-0.1 0-0.2-0.1zm1.4-2v0.1-0.1zm-0.1 0.6q-0.1 0.1-0.2 0.1c0 0 0 0 0 0l0.1 0.8c0-0.1 0-0.3 0.1-0.6 0-0.1 0-0.2 0-0.3zm-0.9 0.3c-0.1 0.2-0.3 0.3-0.1 0.8q0.1-0.4 0.1-0.8zm0.1-0.6v0.1c0.1 0 0.1-0.1 0.1-0.1 0 0-0.1 0-0.1 0z"/><path fill-rule="evenodd" class="a" d="m228.6 34.5l0.6-0.3c-0.2 0.6-0.4 0-0.6 0.8 0.2 0.1 0 0 0.2 0.1 0.1 0 0-0.1 0.2 0-0.2 0.3-0.6 0.4 0 0.9 0.2-0.3 0.2-0.7 0.3-1 0-0.5 0.1-0.6 0.2-1.1l1.1-0.4c0.2-0.1 0.2 0 0.2-0.2-0.6 0.3-0.9 0.3-1.8 0.7-0.4 0.2-0.4 0.1-0.4 0.5z"/><path class="c" d="m228.6 34.5l0.6-0.3c-0.2 0.6-0.4 0-0.6 0.8 0.2 0.1 0 0 0.2 0.1 0.1 0 0-0.1 0.2 0-0.2 0.3-0.6 0.4 0 0.9 0.2-0.3 0.2-0.7 0.3-1 0-0.5 0.1-0.6 0.2-1.1l1.1-0.4c0.2-0.1 0.2 0 0.2-0.2-0.6 0.3-0.9 0.3-1.8 0.7-0.4 0.2-0.4 0.1-0.4 0.5z"/><path fill-rule="evenodd" class="d" d="m212.3 2.2l-1.4 0.2-0.5-1.7c-1.9 0.1-3.7 0.9-5.3 1.3l0.4 1.8-1.3 0.6-1-1.6c-1 0.3-4 2.1-4.6 2.7l0.9 1.7c-0.6 0.3-0.7 0.5-1.2 0.8-0.6-0.4-0.8-0.9-1.4-1.2-0.6 0.6-1.3 1-2 1.7-0.6 0.7-1.2 1.3-1.7 2 0.3 0.6 0.8 0.7 1.2 1.4-0.3 0.4-0.5 0.7-0.8 1.1-0.7-0.2-1-0.6-1.7-0.8-0.7 0.7-2.5 3.8-2.7 4.8l1.5 0.7-0.5 1.4-1.9-0.4c-0.4 1.7-1.1 3.3-1.3 5.3l1.8 0.5-0.2 1.4-1.9 0.1c-0.1 1.7-0.3 3.6 0 5.3 0.6 0.2 1.1 0.1 1.9 0.1l0.2 1.5-1.8 0.5c0.1 1.9 1 3.5 1.3 5.2l1.9-0.4 0.5 1.3c-0.3 0.2-1.2 0.7-1.5 1 0.3 1.1 2 3.9 2.7 4.6l1.7-0.9c0.3 0.5 0.5 0.7 0.8 1.2-0.4 0.6-0.9 0.8-1.2 1.3 0.9 1.5 2.5 2.6 3.7 3.8l1.4-1.3c0.4 0.3 0.7 0.5 1.1 0.9l-0.8 1.6c0.7 0.7 3.7 2.4 4.6 2.7 0.2-0.1 0.1-0.1 0.3-0.3 0-0.1 0.2-0.2 0.2-0.3 0.3-0.4 0.3-0.5 0.4-0.9l1.5 0.5-0.4 1.9c1.8 0.4 3.3 1.1 5.3 1.3l0.5-1.8 1.4 0.2c0 0.4 0 0.6 0 0.9 0.1 1.2 0.1 0.6 0.1 0.7l0.1 0.3c1.4 0.2 3.7 0.2 5.2 0l0.1-0.9c0-0.3 0-0.6 0-1l1.5-0.2 0.5 1.8c1.9-0.1 3.6-1 5.2-1.3l-0.4-1.9 1.5-0.5c0.2 0.5 0.5 1.1 0.9 1.5 1-0.3 3.9-2 4.5-2.7-0.1-0.7-0.6-0.9-0.7-1.6 0.4-0.4 0.6-0.6 1.1-0.8 0.5 0.2 0.9 0.7 1.3 1.2 1-0.4 3.2-3 3.8-3.8-0.4-0.6-0.8-0.7-1.2-1.4 0.2-0.3 0.5-0.7 0.8-1 0.7 0 1 0.5 1.7 0.7 0.6-0.7 2.3-3.5 2.7-4.6-0.1 0-0.1-0.1-0.1 0l-1.5-0.9 0.6-1.4 1.9 0.4c0.3-1.7 1.1-3.3 1.3-5.2l-1.8-0.5 0.2-1.4c1.3-0.1 1.3 0.1 1.9-0.2 0.3-1.7 0.1-3.5 0-5.3h-1.8l-0.2-1.5 1.8-0.5c-0.3-1.9-1-3.5-1.4-5.2l-1.8 0.4-0.6-1.3 1.6-1c-0.3-1-2.2-4-2.7-4.6-0.7 0.2-1 0.6-1.8 0.8-0.2-0.4-0.5-0.7-0.7-1.1l1.1-1.3c-0.5-1.3-2.7-2.9-3.7-3.9l-1.3 1.3-1.2-0.9c0.1-0.6 0.6-1 0.8-1.7-0.6-0.6-3.7-2.3-4.6-2.6-0.4 0.4-0.7 0.9-0.9 1.5l-1.4-0.5 0.4-1.9c-1.7-0.4-3.4-1.2-5.3-1.3l-0.5 1.7-1.4-0.2c-0.1-1.6 0.1-0.7-0.2-1.7 0 0 0-0.1 0-0.1-1.7-0.3-3.5-0.1-5.3 0z"/><path fill-rule="evenodd" class="e" d="m212.7 10.4c-4.8 0.6-9.1 3-12 6.5-2.7 3.4-4.9 8.3-4.1 14.2 1.3 9.4 9.9 17.3 20.9 15.9 9.2-1.2 17.5-9.9 15.9-20.8-1-7.1-5.7-12.7-12.4-15-2.6-0.9-5.5-1.2-8.3-0.8z"/><path fill-rule="evenodd" class="e" d="m213 2.8l-2.7 0.4-0.4-1.8c-1 0.1-3.2 0.7-4 1.1l0.4 1.8-2.4 0.9c-0.4-0.4-0.6-1-0.8-1.5-0.9 0.2-3 1.6-3.7 2l0.9 1.7c-0.6 0.4-1.6 1.3-2.2 1.5l-1.2-1.2c-0.5 0.3-2.7 2.4-2.9 2.9l1.2 1.2c-0.3 0.7-1.1 1.5-1.5 2.1l-1.7-0.8c-0.5 0.8-1.8 2.6-2 3.7l1.5 0.8-1 2.3-1.8-0.4c-0.4 1.3-0.9 2.8-1 4.1l1.7 0.4-0.3 2.6 6.9 0.1c0.6-9.3 9.1-17.1 19-17.1 9.9 0 18.4 7.7 19.1 17.1l6.7-0.1c0.2-0.9-0.1-1.7-0.2-2.6l1.8-0.4c-0.1-1-0.7-3.2-1.1-4l-1.8 0.4-0.9-2.4 1.5-0.9c-0.4-1.3-1.4-2.6-2-3.6l-1.7 0.9c-0.5-0.7-1.2-1.4-1.5-2.2l1.2-1.2c-0.3-0.5-2.4-2.6-2.9-2.9l-1.2 1.2c-0.5-0.2-1.7-1.2-2.2-1.5l0.9-1.6c-0.7-0.5-2.7-1.8-3.7-2.1l-0.8 1.6-2.4-1 0.4-1.8c-0.9-0.4-3-0.9-4.1-1.1l-0.4 1.8-2.5-0.3c-0.2-0.5-0.1-1.2-0.1-1.9l-4.1-0.1z"/><g style="opacity:.15"><g clip-path="url(#cp1)"><path class="a" d="m197.2 30.6q0 0-0.1 0c0 0.1-0.1 0.1-0.1 0.3q0 0.1 0 0.2c0 0.1 0 0.1-0.3 0.3l-0.1 0.2-0.1-0.2c-0.2-0.4-0.3-1.4-0.4-2.1q0-0.2 0-0.4 0-0.2 0-0.3v-0.1h0.1l4.5-2.9c0.4-0.2 0.8-0.5 1.1-0.8q0.5-0.4 1-0.8c0.5-0.3 1-0.8 1.5-1.3 0.8-0.7 1.7-1.5 2.3-2h0.1c1.1-0.3 2.2-1.5 3.3-2.6 1.3-1.4 2.6-2.7 3.9-2.8 1.5 0.1 2.5 1.5 3.5 3 0.8 1 1.5 2.1 2.4 2.5l2.6 1.1c1.3 0.3 1.8 0.7 2.4 1.1 0.3 0.2 0.7 0.5 1.3 0.8 0.3 0.1 0.5 0.3 0.7 0.5q0.2 0.1 0.3 0.3c0.5 0.4 0.9 0.5 1.3 0.7 0.3 0.1 0.7 0.3 1.1 0.5l3.5 2c0.7 0.4 0.7 0.5 0.6 1.2 0 0.1 0 0.2 0 0.3v0.2l-0.3-0.1h0.1q0 0.1 0.1 0.2c0.1 0 0.1 0.1 0.1 0.3v0.3l-0.2-0.1q0 0.1 0.1 0.3l0.1 0.2h-0.3c0.1 0.1 0.1 0.3 0.1 0.4l0.1 0.4h-0.1v0.1c0 0.5 0 0.8-0.6 0.9-0.3 0.1-0.8 0-1.2 0q-0.1 0-0.2 0c-0.2 0-0.5-0.1-0.7-0.1-0.4 0-0.9 0-1.3-0.1q-0.3 0-0.6-0.1c-0.2 0-0.3-0.1-0.3-0.2q-0.1 0-0.1-0.1l-0.1-0.1c-0.1-0.3-0.3-0.5-0.6-0.8l-0.9-1.1c0 0.1 0 0.2 0 0.3v0.3l-0.3-0.1c-0.1-0.1-0.1-0.1-0.2-0.1l0.1 0.2h-0.2l-0.1 0.1-0.1-0.1c-0.2 0-0.2-0.1-0.3-0.3-0.1-0.1-0.2-0.3-0.4-0.5l-0.1-0.1c-0.3-0.3-0.8-1.1-1.2-1.7-0.1-0.1-0.2-0.3-0.2-0.4q-0.1-0.1-0.2-0.3l-0.6-0.9q0-0.1 0-0.1c-0.1 0-0.1 0-0.1 0l-0.1-0.1v-0.1c0-0.2 0-0.3-0.1-0.3 0-0.2 0-0.2 0-0.3 0-0.1 0-0.1 0-0.1 0.1-0.1 0.1-0.2 0.2-0.9 0.1-0.3 0.1-0.4 0.2-0.5q0-0.1 0.1-0.3 0.1-0.1 0.1-0.3 0-0.2 0-0.3-0.1 0-0.1 0c-0.4-0.2-0.7-0.3-1-0.4 0 0-0.1 0-0.2-0.1-0.2 0-0.4-0.1-0.5-0.1q-0.3-0.1-0.4-0.2c0 0-0.1-0.1-0.2-0.1-0.1-0.1-1.2-0.5-1.9-0.8-0.2 0-0.3-0.1-0.4-0.1h-0.1c-0.3 0.1-0.7 1.1-1.1 2l-0.1 0.2h0.1v-0.1h0.1l0.3 0.2c-0.1 0.5-0.7 1.7-1.2 2.4q-0.1 0.2-0.2 0.4c-0.1 0.1-0.2 0.2-0.2 0.2l-0.2 0.2-0.1-0.2c-0.1-0.3-0.1-0.4-0.1-0.4 0-0.2 0-0.3-0.1-0.4 0-0.1-0.1-0.2-0.1-0.2l-0.2 0.1q0.5 0.7 0.6 1.1l-0.3 0.1c0.1 0.3 0.2 0.6 0.3 0.8l0.1 0.4-0.4-0.2q0.1 0.2 0.2 0.5l-0.3 0.2c0 0-0.1-0.1-0.2-0.1 0.3 0.4 0.6 0.8 0.7 1.1l-0.3 0.2c0 0-0.1-0.1-0.1-0.1q0.2 0.3 0.3 0.7l-0.3 0.2c0 0-0.1-0.1-0.2-0.2 0.1 0.2 0.2 0.4 0.2 0.6v0.3l-0.3-0.2c0 0.2 0.1 0.3 0.2 0.5 0.1 0.1 0.1 0.2 0.2 0.3q0 0.2 0 0.3l0.1 0.4-0.4-0.2c0 0-0.3-0.4-0.7-1q0 0-0.1 0.1c0 0.1-0.1 0.1-0.1 0.1 0 0 0 0-0.1 0.1l-0.3 0.1v-0.2c-0.1-0.3-0.8-1.4-1.2-1.9l-0.1-0.2-1.7-2.4q-0.1 0.1-0.2 0.3c0.2 0.3 0.3 0.5 0 0.8v0.1c0 0 0.1 0.1 0.2 0.2q0 0.1 0.1 0.2c0.1 0.1 0.2 0.3 0.3 0.5v0.3h-0.2-0.1q0.3 0.3 0.5 0.6 0.2 0.3 0.3 0.3l0.1 0.1v0.2c0 0-0.1 0-0.1 0 0.1 0.1 0.1 0.1 0 0.2 0 0-0.1 0-0.2 0.1h-0.1-0.1c-0.4-0.1-0.6-0.1-0.8-0.1q-0.1 0-0.3 0-0.2 0-0.2-0.1-0.1-0.1-0.1-0.1v-0.2h-0.6l-0.1-0.3v-0.1c-0.2 0-0.3-0.1-0.4-0.2-0.2-0.1-0.3-0.1-0.8 0h-0.2v-0.1c0 0-0.1 0-0.1 0 0-0.1 0-0.1 0-0.2q-0.1 0-0.2 0l-0.3-0.1c-0.4-0.1-0.4-0.1-0.6-0.1 0 0-0.1 0-0.2 0h-0.1-0.1l-0.1-0.2c-0.1 0.2-0.3 0.3-0.7 0.4-0.4 0.1-0.6 0.1-0.7 0.2-0.1 0.1-0.2 0.2-0.5 0.2l-0.3 0.2 0.1-0.4c0 0 0-0.1 0-0.1l-0.3 0.2-0.4 0.2 0.1-0.4 0.1-0.2c0 0 0 0 0 0q-0.2 0.1-0.4 0.1l-0.2-0.3c0.3-0.2 0.4-0.4 0.6-0.5l-0.2-0.3c0.1-0.1 0.2-0.2 0.4-0.3q0.1-0.1 0.4-0.2v-0.1c-0.2 0.1-0.3 0.2-0.4 0.2-0.3 0.2-0.6 0.5-1 0.6l-0.1-0.3q0.1-0.1 0.2-0.2c0.2-0.2 0.5-0.5 1.2-0.7 0.5-0.3 0.5-0.4 0.4-0.6 0-0.2-0.1-0.4-0.1-0.7q0-0.1 0-0.3c0-0.5 0.1-1.1 0.3-1.6 0.2-0.3 0.3-0.3 0.5-0.4q0.1 0 0.3-0.1 0.1-0.1 0.2-0.3c0.1-0.1 0.2-0.2 0.3-0.3 0.2-0.1 0.4-0.1 0.5-0.2 0.1 0 0.1 0 0.3-0.2q0.1-0.1 0.2-0.2c0.1-0.1 0.2-0.2 0.4-0.3 0.5-0.4 0.6-0.5 0.7-0.7q0.1-0.2 0.4-0.5c0.2-0.4 0.4-0.5 0.7-0.7 0.1-0.1 0.3-0.3 0.5-0.4q0.2-0.3 0.4-0.5-0.1 0-0.1 0c-0.1 0-0.2 0-0.6 0.4-0.3 0.2-0.4 0.2-0.5 0.2 0 0-0.1 0-0.2 0.1-0.8 0.4-1.6 1-2.5 1.8l0.2 0.2c0 0.2-1.2 1.2-2.1 1.9l0.3 0.2c-0.1 0.2-0.5 0.5-0.8 0.9v-0.1c0.1 0 0.1 0 0.1-0.1 0.1 0 0.1 0 0.2 0l0.1-0.1 0.2 0.3c-0.4 0.7-5.1 3.9-6.9 5.1q-0.3 0.2-0.5 0.3c0 0.1 0 0.1-0.1 0.2 0.1 0 0.1 0.1 0 0zm32.6-4.3c0.2 0.2 0.6 0.6 1 1.1l0.4-0.2c0 0.1 0 0.1 0.1 0.2q0.1 0.1 0.3 0.3c0.5 0.4 1.2 1 1.7 1.2 0.1-0.5 0.1-0.5-0.4-0.8zm-6-3.5q0 0.2-0.1 0.5c-0.1 0-0.1 0.1-0.1 0.2-0.1 0.3-0.1 0.4-0.2 0.4 0 0.1 0 0.2-0.1 0.3l0.3-0.1c0 0.2 0.1 0.3 0.2 0.6q0.1 0.3 0.3 0.7c0.7 1.3 1.7 3 2.3 3.6q0.1 0.1 0.2 0.1 0.1 0.1 0.2 0.3l1.2 1.2v0.1c0.3 0.3 0.5 0.5 0.7 0.9q0 0 0.1 0.1 0 0.1 0.1 0.2 0-0.1 0-0.1 0.2 0.1 0.5 0.1 0.6 0.1 1.3 0.1c0.2 0 0.4 0.1 0.6 0.1 0.1 0 0.2 0 0.3 0 0.3 0 0.8 0.1 1 0 0.3 0 0.3-0.2 0.3-0.5v-0.1c-0.2-0.1-0.4-0.3-0.6-0.4-0.2-0.2-0.5-0.4-0.7-0.6-1.3-1.1-2.7-2.5-3.2-3.7l0.3-0.1q-0.1-0.1-0.3-0.4l0.3-0.2q0.3 0.2 0.5 0.5l0.2-0.3-0.2-0.1c-0.4-0.2-0.8-0.3-1.1-0.5-0.5-0.1-0.9-0.3-1.4-0.7q-0.2-0.2-0.4-0.3c-0.1-0.2-0.3-0.4-0.6-0.5-0.7-0.3-1-0.6-1.4-0.8 0-0.3-0.2-0.5-0.5-0.6zm-0.5 1.7c-0.1 0.6-0.2 0.7-0.2 0.8 0 0 0 0.1 0 0.2l0.1 0.2c0 0 0 0 0 0.1h0.1c-0.1-0.2-0.1-0.3-0.2-0.5l0.4-0.1c0 0 0.1 0.1 0.1 0.2-0.1-0.3-0.2-0.6-0.3-0.9zm9.2 4.5c0 0.1 0.1 0.1 0.1 0.2q0-0.1-0.1-0.2zm-23.6-9.4c0.2-0.1 0.3-0.1 0.4-0.1 0 0 0.1 0 0.2-0.1 0.6-0.4 0.7-0.4 0.9-0.4 0.1 0 0.1 0 0.4-0.2q0.1-0.1 0.1-0.1c0.1-0.1 0.2-0.1 0.4-0.2l0.3-0.1-0.1 0.3c0 0.3-0.2 0.4-0.4 0.6-0.2 0.1-0.4 0.3-0.7 0.7-0.2 0.2-0.4 0.3-0.6 0.5-0.2 0.1-0.4 0.3-0.6 0.5q-0.2 0.3-0.3 0.5c-0.2 0.3-0.2 0.4-0.8 0.8q-0.2 0.1-0.3 0.3-0.1 0.1-0.2 0.2c-0.3 0.3-0.4 0.3-0.6 0.3q-0.1 0-0.3 0.2c-0.1 0-0.1 0.1-0.2 0.2q-0.2 0.2-0.3 0.3c-0.1 0.1-0.3 0.2-0.3 0.2-0.1 0-0.2 0.1-0.3 0.3-0.3 0.4-0.3 0.9-0.3 1.4q0 0.1 0 0.3 0 0.3 0 0.5c0.1 0.4 0.2 0.6-0.2 0.8l-0.1 0.6c0 0 0.1 0.1 0.2 0.2l0.1 0.1-0.1 0.1c0 0 0.1 0 0.2 0h0.3l-0.1 0.2 0.1-0.1 0.2-0.1c-0.2-0.2-0.4-0.5-0.5-0.9l0.3-0.2 1.2 1.6q0.1 0 0.2 0c0.2-0.1 0.3-0.1 0.6 0.1l0.3 0.1c0 0 0.1 0 0.2 0q0.2 0 0.3 0l0.2 0.1-0.1 0.2c0.5-0.1 0.6 0 0.8 0.1 0.2 0.1 0.3 0.2 0.7 0.2l0.1 0.3h0.7 0.3l-0.1 0.3c0 0 0 0 0 0 0.1 0 0.3 0 0.6 0.1 0 0-0.1-0.2-0.3-0.3-0.2-0.2-0.4-0.6-0.7-0.9-1.4-1.9-3.6-5.3-3.7-5.7l0.3-0.2c0 0.1 0.1 0.1 0.1 0.2 0.1 0 0.1 0.1 0.2 0.1 0.2 0.2 0.4 0.5 0.5 0.7q-0.1-0.1 0-0.1l0.3-0.2 0.3 0.3 0.2-0.2q0.1 0 0.3 0.2 0.1 0.1 0.2 0.3c-0.3-0.5-0.7-1-0.8-1.4l0.3-0.1c0.1 0 0.1 0 0.1 0q-0.2-0.3-0.3-0.5l0.3-0.2c0.2 0.2 1.5 2 2.4 3.4 0.5 0.6 0.8 1.1 1 1.4 0.1 0.1 0.4 0.5 0.8 1.1 0.4 0.6 0.9 1.4 1.4 2.1-0.2-0.3-0.3-0.6-0.4-0.7l0.2-0.3c0.2 0.1 0.3 0.3 0.5 0.6-0.5-0.9-1.4-2.2-2.2-3.3-0.5-0.7-0.9-1.3-1.2-1.6 0-0.1-0.2-0.3-0.3-0.5-0.6-1-1.7-2.7-1.9-3.2l0.3-0.2q0.2 0.3 0.4 0.6c-0.1-0.3-0.3-0.6-0.4-0.8l0.4-0.2c0.1 0.2 0.4 0.6 0.7 1q-0.2-0.3-0.3-0.5l0.3-0.2c0.4 0.4 0.8 0.9 1.1 1.5l0.2 0.3q0.1 0.1 0.3 0.5c0.1 0.2 0.3 0.4 0.4 0.6 0.8 1.1 1.7 2.5 2.3 3.1q-0.2-0.3-0.3-0.5l0.4-0.1c0 0 0 0 0 0 0 0.1 0 0.1 0.1 0.1-0.4-0.7-1-1.4-1.6-2.2-0.5-0.8-1.1-1.5-1.4-2.1-0.1-0.1-0.2-0.2-0.2-0.3-0.4-0.6-0.8-1.3-1-1.7l0.3-0.2c0.1 0.1 0.1 0.1 0.2 0.2q-0.3-0.4-0.5-0.8l0.3-0.3c0.3 0.3 1 1.3 1.7 2.5 0.5 0.8 1.1 1.6 1.5 2.3v-0.1c-0.1-0.2-0.2-0.4-0.3-0.5l0.3-0.2c-0.3-0.5-0.6-0.9-0.9-1.3-0.4-0.7-0.8-1.3-1-1.8l0.3-0.2c0.1 0.1 0.1 0.1 0.1 0.1-0.3-0.5-0.6-1-0.7-1.3l0.3-0.2c0.1 0.1 0.2 0.1 0.3 0.2v0.1l0.3-0.2c0.1 0 0.1 0.1 0.1 0.1 0 0 0 0 0 0l0.3-0.2c0.1 0.1 0.2 0.3 0.3 0.4l0.1 0.1 0.3-0.2 0.4 0.4c0-0.1 0-0.3 0.3-0.3l0.1-0.1 0.1 0.1c0 0.1 0 0.1 0 0.1q0.1-0.1 0.1-0.1l0.1-0.1h0.1c0.2 0.1 0.3 0.4 0.3 0.6l0.1-0.2 0.2 0.2c0 0.1 0 0.1 0 0.1v-0.1l0.1-0.1h0.1l0.7 0.2h0.1v0.2 0.3q0.1-0.1 0.3-0.1c0.1 0 0.2 0 0.3 0.1q0.2 0.1 0.2 0.3 0.1 0.2-0.2 0.8l-1.8 3.6c0 0.3 0.1 0.6 0.2 0.8 0 0.1 0.1 0.2 0.1 0.3 0 0 0.1-0.1 0.1-0.2 0.1-0.1 0.2-0.2 0.2-0.3l-0.2-0.1c0-0.1 0.3-1.2 0.8-2.2 0.4-1.1 0.9-2.2 1.3-2.3 0 0 0 0 0 0h0.1q0.1 0 0.2 0l0.2 0.1c-0.7-0.6-1.3-1.4-1.9-2.3-1-1.3-1.9-2.7-3.2-2.8-1.1 0.1-2.4 1.4-3.6 2.7-0.4 0.5-0.9 0.9-1.3 1.3zm5.8-0.2c0.1 0.1 0.1 0.1 0.1 0.2q0-0.1 0.1-0.2-0.1 0-0.2 0zm-0.2 0.4c0 0.2 0.1 0.3 0.1 0.4 0-0.1 0-0.2 0.1-0.2l-0.2-0.1q0-0.1 0-0.1zm0.1 1.2c0 0 0 0.1 0 0.1 0.1 0 0.1-0.1 0.1-0.1zm-0.1 0.5q0 0.1 0.1 0.2c0-0.1 0-0.2 0-0.3zm0.7 2.6c0.2 0.3 0.3 0.6 0.4 0.8q0-0.2 0.1-0.4l1.8-3.8c0.1-0.3 0.1-0.4 0.1-0.5q0-0.1 0-0.1 0 0-0.1 0c-0.1 0-0.3 0.1-0.4 0.2l-0.4 0.3 0.1-0.4v-0.6l-0.3-0.1-0.3 0.6-0.3-0.1c0 0.1-0.1 0.2-0.1 0.3 0 0.1-0.1 0.1-0.1 0.1l0.1 0.2c0.1 0.3-0.1 1.1-0.4 1.7 0 0.1-0.1 0.2-0.1 0.2-0.1 0.1-0.1 0.2-0.2 0.2l-0.2 0.2-0.1-0.3h-0.1c0.3 0.5 0.5 1 0.7 1.4zm0-3.2c-0.2 0.4-0.4 0.7-0.2 1.3v-0.1q0.2-0.4 0.3-0.8h-0.2q0.1-0.2 0.1-0.4zm-11.9 3.2q0.7-0.6 1.6-1.3c0.7-0.6 1.4-1.3 2.1-1.9q-0.1 0.1-0.2 0.1c-0.6 0.5-1.4 1.2-2.2 1.9-0.5 0.5-1 0.9-1.3 1.2zm27.8 4.3c0.1 0.1 0.2 0.2 0.3 0.3 0 0-0.1-0.1-0.1-0.2-0.1 0-0.2-0.1-0.2-0.1zm-34.1 1.8c0.1 0 0.1 0 0.1 0h0.1c0-0.1 0.3-0.2 0.5-0.4 0.4-0.2 0.8-0.5 1.2-0.8-0.3 0.2-0.5 0.3-0.7 0.4l-0.2-0.2h-0.1c0.3-0.3 0.7-0.6 1.2-0.9l0.2-0.1h-0.1l-0.2-0.3 1.3-1-0.2-0.3 0.5-0.3 0.1-0.1c0.3-0.2 0.7-0.5 1-0.8-0.2 0.2-0.5 0.4-0.7 0.6l-4.5 2.8q0 0.1 0 0.2 0 0.1 0 0.3c0 0.5 0.1 1 0.1 1.5 0.1-0.3 0.1-0.4 0.2-0.4 0-0.2 0.1-0.2 0.2-0.1 0-0.1 0-0.1 0-0.1z"/></g></g><g style="opacity:.15"><g clip-path="url(#cp2)"><path class="a" d="m216.8 32.9v-0.1c0.1-0.3 0.1-0.5 0.1-0.8v-0.2l0.3 0.1c0.1 0 0.2 0.1 0.2 0.2 0.2-0.3 0.4-0.5 0.7-0.7l0.3 0.3-0.1 0.2c0.2-0.1 0.4-0.4 0.5-0.6q0.1-0.2 0.2-0.3l0.3 0.3-0.6 1c0.1 0 0.2 0 0.3 0q0.2 0 0.4 0 0.1 0 0.1 0h0.1q0.2 0 0.2 0c0.2 0 0.3 0 0.4 0 0-0.1 0-0.3 0-0.5-0.1 0.1-0.1 0.1-0.2 0.2 0 0 0 0.1 0 0.1l-0.4-0.1q0 0 0.1-0.1 0.1-0.2 0.2-0.4c0-0.1 0.1-0.1 0.1-0.2 0 0-0.1 0.1-0.1 0.1-0.1 0.2-0.3 0.4-0.4 0.6l-0.3-0.3c0.1-0.2 0.2-0.3 0.3-0.5q0.2-0.3 0.3-0.6 0.2-0.3 0.3-0.4v-0.1c0 0.1-0.1 0.1-0.1 0.2-0.1 0.1-0.2 0.2-0.3 0.3l-0.3-0.1q0-0.1 0.1-0.3 0.1-0.2 0.2-0.5c0.5-0.8 1.4-2.1 1.7-2.5l0.1-0.1 0.4 0.1c0 0.1-0.1 0.1-0.1 0.2q0 0.1-0.1 0.2c-0.1 0.2-0.3 0.5-0.4 0.7h0.1c0.3 0.1 0.5 0.4 0.6 0.7h0.2c0 0 0.1 0 0.1 0 0 0 0 0 0 0-0.5-0.9-0.2-1.1 0.1-1.4q0.1-0.1 0.2-0.2c0.1-0.2 0.1-0.3 0-0.4 0-0.1 0-0.2-0.1-0.3 0-0.4 0.1-0.5 0.2-0.6 0-0.1 0-0.1 0-0.2 0-0.2 0-0.3 0-0.4-0.1-0.1-0.1-0.2-0.1-0.2 0-0.1 0.1-0.1 0.1-0.2 0 0 0.1-0.1 0.2-0.9 0-0.2 0-0.3 0.1-0.4q0-0.1 0.1-0.4 0.1-0.1 0.1-0.2 0.1-0.2 0.1-0.3l-0.2-0.1c-0.4-0.1-0.7-0.3-1-0.3 0-0.1-0.1-0.1-0.2-0.1-0.2 0-0.4-0.1-0.5-0.1q-0.3-0.1-0.4-0.2c0-0.1-0.1-0.1-0.2-0.2 0 0-0.1 0-0.2-0.1-0.1 0-0.3-0.1-0.4-0.1-0.7-0.3-1.6-0.6-1.8-0.7-0.3 0.2-0.7 1.1-1.1 2.1l-0.1 0.1c0 0 0.1 0 0.1 0l0.1-0.1 0.3 0.2q-0.1 0.2-0.2 0.4-0.1 0.2-0.2 0.4c-0.4 0.9-1 2-1.3 2.3l-0.1 0.1-0.1-0.2c-0.2-0.2-0.1-0.3-0.1-0.4q0-0.2-0.1-0.4c-0.1 0-0.1-0.1-0.1-0.2l-0.3 0.1q0.5 0.7 0.6 1.1l-0.3 0.2c0.1 0.2 0.3 0.5 0.3 0.7l0.2 0.5-0.4-0.2q0.1 0.2 0.1 0.5l-0.2 0.2c-0.1 0-0.2-0.1-0.2-0.1 0.3 0.4 0.5 0.8 0.6 1l-0.3 0.3c0-0.1-0.1-0.1-0.1-0.1q0.2 0.3 0.3 0.7l-0.2 0.2c-0.1 0-0.2-0.1-0.3-0.2 0.1 0.2 0.2 0.4 0.2 0.6l0.1 0.3-0.3-0.2c-0.1 0-0.1 0-0.1 0 0.2 0.5 0.4 0.9 0.5 1.1l-0.3 0.2c-0.2-0.2-1.7-2.3-2.6-3.7l-0.1-0.1-0.3 0.2c-0.5-1-0.6-1.1-0.6-1.1-0.1 0-0.1-0.1-0.5-0.6-0.2-0.3-0.5-0.8-0.9-1.3-0.7-1.1-1.5-2.3-1.8-3l0.3-0.2c0.2 0.1 1.4 2 2.4 3.4 0.4 0.6 0.8 1.1 1 1.4 0.1 0.1 0.4 0.6 0.7 1.1 0.5 0.6 1 1.4 1.5 2.1q-0.1-0.1-0.1-0.2-0.1-0.2-0.2-0.3-0.1-0.1-0.2-0.2l0.3-0.3c0.2 0.1 0.3 0.3 0.5 0.6-0.5-0.9-1.4-2.2-2.2-3.3-0.5-0.7-0.9-1.3-1.2-1.6q-0.2-0.2-0.3-0.5c-0.7-1-1.7-2.6-2-3.2l0.4-0.2q0.2 0.3 0.4 0.7 0-0.1-0.1-0.2c0-0.2-0.1-0.3-0.1-0.4q-0.1-0.2-0.2-0.3l0.4-0.2c0.1 0.2 0.4 0.6 0.7 1.1v-0.1q-0.2-0.3-0.3-0.5l0.3-0.2c0.4 0.4 0.8 1 1.1 1.5l0.2 0.3c0.4 0.7 1.5 2.3 2.3 3.4q0.2 0.3 0.4 0.6c0.1 0.1 0.2 0.2 0.3 0.3q-0.2-0.3-0.3-0.6l0.4-0.1c0 0.1 0 0.1 0.1 0.2-0.4-0.7-1-1.5-1.6-2.3-0.5-0.7-1-1.4-1.4-2.1 0 0-0.1-0.2-0.2-0.3-0.3-0.5-0.8-1.3-0.9-1.6l0.3-0.2q0 0 0.1 0.1-0.2-0.4-0.4-0.8l0.3-0.2c0.3 0.2 1 1.2 1.7 2.4 0.5 0.8 1 1.6 1.5 2.3l-0.1-0.1q-0.1-0.2-0.2-0.4l0.2-0.2c-0.2-0.5-0.5-0.9-0.8-1.4-0.4-0.6-0.8-1.2-1-1.7l0.3-0.2c0 0 0 0 0.1 0.1-0.3-0.5-0.6-1-0.7-1.3l0.3-0.2c0.1 0.1 0.2 0.1 0.2 0.2l0.2-0.1 0.3-0.2c0 0 0.1 0.1 0.1 0.1 0 0 0 0 0 0l0.3-0.2c0.1 0.1 0.2 0.3 0.3 0.4v0.1l0.3-0.2 0.4 0.4c0-0.2 0.1-0.3 0.4-0.4h0.1v0.1c0.1 0 0.1 0 0.1 0.1 0-0.1 0-0.1 0-0.1l0.1-0.2 0.2 0.1c0.2 0.1 0.3 0.3 0.2 0.6l0.2-0.2 0.1 0.2c0 0 0.1 0 0.1 0l0.1-0.2 0.1 0.1 0.6 0.1 0.2 0.1v0.1 0.4q0.1-0.1 0.3-0.1c0.1 0 0.2 0 0.3 0.1q0.1 0.1 0.2 0.3 0 0.2-0.2 0.8l-1.8 3.6c-0.1 0.3 0 0.6 0.1 0.8 0 0.1 0.1 0.2 0.1 0.3 0.1-0.1 0.3-0.3 0.4-0.5l-0.3-0.1c0-0.1 0.4-1.2 0.8-2.2 0.4-1.1 0.9-2.1 1.3-2.3 0 0 0.1 0 0.1 0 0.1 0 1.2 0.4 2 0.7 0.1 0 0.3 0.1 0.4 0.1q0.1 0.1 0.2 0.1h0.1q0.1 0.1 0.2 0.2c0.1 0.1 0.2 0.1 0.3 0.2 0.1 0 0.3 0.1 0.5 0.1 0.1 0 0.1 0 0.2 0.1 0.3 0 0.6 0.2 1 0.3q0.2 0.1 0.3 0.2h0.2l-0.1 0.2c0 0.1 0 0.3-0.1 0.4 0 0.1 0 0.2-0.1 0.3 0 0.2-0.1 0.3-0.1 0.4-0.1 0.1-0.1 0.1-0.1 0.3-0.1 0.8-0.2 1-0.3 1 0 0.1 0 0.1 0.1 0.2q0 0.2 0 0.4c0.1 0.2 0 0.3-0.1 0.4 0 0.1-0.1 0.2 0 0.4q0 0.1 0 0.2c0.1 0.2 0.2 0.4 0 0.7-0.1 0.1-0.2 0.2-0.3 0.3-0.2 0.2-0.3 0.3 0 0.9 0.1 0.2 0.4 0.6 0.8 1 0.4 0.6 0.9 1.3 1 1.5v0.2h-0.2c-0.2 0-0.4 0-0.5-0.1l-0.2 0.2-0.1-0.1q-0.1 0-0.2-0.1 0 0.1 0 0.1l0.1 0.4-0.4-0.1c-0.2-0.1-0.6-0.5-0.7-0.7h-0.1v-0.1c-0.5-0.5-0.6-0.6-0.7-0.7 0-0.1 0-0.2 0-0.2 0-0.1 0-0.2-0.3-0.7q0-0.2-0.1-0.3c-0.1-0.1-0.1-0.1-0.1-0.2-0.1-0.1-0.1-0.2-0.1-0.2 0 0 0 0 0 0q-0.3 0.4-0.6 0.9c0.5 0.3 0.4 0.3 0.1 0.8q0 0.1-0.1 0.2l0.2-0.1v0.3c0 0.2-0.1 0.3-0.1 0.4l0.1 0.3c0 0.5-0.1 1.5-0.2 2.3q-0.1 0.2-0.1 0.4c-0.1 0.1-0.1 0.2-0.2 0.3l-0.1 0.2-0.2-0.2c-0.2-0.2-0.2-0.4-0.1-0.5-0.1-0.1-0.1-0.1-0.1-0.2-0.1 0-0.1 0-0.1 0v-0.1c-0.4 0.2-0.5 0.3-0.8 0l-0.2-0.1 0.1-0.1c0.3-0.4 0.6-0.4 0.9-0.5 0.2-0.1 0.4-0.1 0.5-0.3q0 0-0.2 0h-0.1-0.1q-0.1 0-0.2 0-0.2 0-0.5 0c-0.1 0-0.1 0-0.2 0h-0.1c0 0.4-0.2 1-0.3 1.5q-0.1 0.2-0.1 0.3c0 0.1-0.1 0.2-0.1 0.2l-0.1 0.1h-0.2c-0.1-0.1-0.3-0.3-0.4-0.5 0-0.2-0.1-0.4-0.1-0.6q-0.1-0.1-0.1-0.1l0.1-0.1v-0.1l-0.1-0.1c-0.1-0.3-0.1-0.4 0-0.6v-0.1-0.1c0 0.1-0.1 0.2-0.1 0.4 0 0.2 0 0.4-0.1 0.7l-0.2-0.1q0 0.1 0 0.2c0 0.1 0 0.1 0 0.1q0 0.2 0 0.4c0 0.5 0 0.9-0.1 1.1q-0.1 0.1-0.2 0.1 0 0-0.1 0c-0.2 0-0.3-0.2-0.5-0.4-0.2-0.2-0.4-0.4-0.4-0.4l-0.1 0.1-0.1-0.1c-0.2-0.3-0.3-0.3-0.3-0.5 0-0.1 0-0.2 0-0.3v-0.1l0.1-0.1 0.5-0.3 0.2 0.4-0.4 0.2q0 0.1 0 0.2c0 0 0 0.1 0.1 0.1 0.2 0 0.5 0.3 0.7 0.6l0.1 0.1h0.1c0-0.1 0-0.4 0-0.7v-0.1c0 0 0 0 0 0l-0.3-0.2c0 0 0 0 0-0.1h-0.1-0.2l0.1-0.2c0.1-0.5 0.3-0.5 0.5-0.5q0.1 0 0.2-0.1 0-0.1 0.1-0.2zm-2-13.2q0.1-0.2 0.1-0.3c0 0.1-0.1 0.1-0.1 0.1q0 0.1 0 0.2zm-0.2 0.5c0.1 0 0.1-0.1 0.1-0.2l-0.1-0.1c-0.1 0-0.1 0-0.1 0q0.1 0.2 0.1 0.3zm0.1 1c0 0 0-0.1 0-0.1l-0.1-0.1q0.1 0.1 0.1 0.2zm-0.1 0.5c0-0.1 0-0.2 0-0.3l-0.1 0.1q0 0.1 0.1 0.2zm1 3.3c0-0.1 0-0.2 0-0.4l1.8-3.8c0.1-0.3 0.2-0.4 0.2-0.5q0-0.1-0.1-0.1 0 0-0.1 0c-0.1 0-0.3 0.1-0.4 0.2l-0.3 0.3v-0.4l0.1-0.6-0.4-0.1-0.3 0.6-0.2-0.1q-0.1 0.1-0.2 0.3c0 0.1 0 0.1 0 0.1l0.1 0.2q0 0.1 0 0.3c0 0.1 0 0.2 0 0.3-0.1 0.5-0.5 1.4-0.7 1.5l-0.2 0.2-0.1-0.3h-0.1c0.3 0.5 0.5 1 0.6 1.4l-0.1 0.1q0.2 0.4 0.4 0.8zm-0.5-3.7c0.1-0.1 0.1-0.2 0.1-0.4-0.2 0.5-0.3 0.8-0.2 1.3 0.1-0.2 0.3-0.5 0.3-0.8zm8.4 9.1c0.1 0.1 0.2 0.3 0.3 0.4-0.1-0.1-0.2-0.3-0.3-0.4zm-1.5-0.4v0.1c0 0 0.1 0.1 0.2 0.3-0.1-0.2-0.1-0.3-0.2-0.4zm-0.7-1.6q0 0.1 0 0.1zm-1.2 5.2l-0.1 0.1c0 0 0 0 0 0zm0.1-0.5v0.1zm-1.9 0.1c-0.1 0.1-0.1 0.1-0.2 0.1-0.1 0.1-0.2 0.1-0.3 0.3 0 0.1 0.1 0.3 0.1 0.5q0.1 0.1 0.1 0.2 0.1-0.1 0.1-0.3 0.1-0.3 0.2-0.8zm-0.5-0.3q-0.1 0-0.1 0c0 0 0 0 0 0.1zm0.5-0.5q-0.1 0-0.2 0.1c0 0 0.1 0 0.1-0.1zm-1.8 1v-0.1q0 0-0.1 0.1h0.1z"/></g></g><path fill-rule="evenodd" class="a" d="m220.8 32.7c0.3 0 0.6 0 0.8 0.1-0.2 0.3-0.4 0.2-0.8 0.4 0.1 0.1-0.1 0.3 0.7 0.1-0.3 0.4-0.7 0.4-0.2 1 0.4-0.1 0.4-0.8 0.6-1.6 0.2 0 0.2 0.2 0.8 0.3l-0.2 0.1c-0.4 0.3-0.3 0-0.4 0.4h0.5c-0.3 0.3-0.5 0.3-0.1 0.7 0.4-0.6 0.2-0.5 0.4-1.1 0 0 0 0 0 0 0.4 0 0.1-0.1 0.3 0 0.3 0.2 0.1 0.1 0.2 0.2l-0.4 0.1 0.1 0.7c0.3-0.1 0.1 0.1 0.3-0.4l0.2-0.6c0.2 0.2 0.2 0.2 0.4 0.3-0.1 0.3 0 0.1-0.2 0.4 0.2 0.3 0.1 0.3 0.3 0.5 0.2-0.4 0.2-1.1 0.4-1.4 0 0 0 0 0.1 0 0 0 0 0 0 0 0.3 0.1 0.3 0.1 0.8-0.2 0.3-0.2 0.8-0.4 1-0.6-0.7 0.1-1.9 0.6-2.5 0.9 0.3-0.4 1.2-0.6 1.7-1l0.1-0.1c-0.5 0.1-1.3 0.5-1.8 0.6-0.1 0.1-0.2 0.1-0.3 0.1-0.3 0.1 0.2 0.1-0.2 0.1 0.5-0.3 1.2-0.7 1.8-1-0.5 0-2.1 0.7-2.4 0.8l1.4-0.9c-0.5 0.1-1.1 0.4-1.6 0.6-0.6 0.1-1.3-0.2-1.8 0.5z"/><path class="a" d="m221.1 32.9c-0.1 0-0.3 0-0.4 0l-0.3-0.1 0.2-0.3c0.5-0.4 0.9-0.5 1.4-0.5 0.2 0 0.3 0 0.5 0q0.1-0.1 0.3-0.2c0.4-0.2 0.9-0.4 1.3-0.4h0.1v0.3c0.3-0.1 0.6-0.2 0.8-0.2q0.1 0 0.1 0v0.4q0.3-0.1 0.5-0.2l0.1 0.4c0.1 0 0.2 0 0.2-0.1 0.1 0 0.3 0 0.4 0l0.1 0.3c-0.1 0.2-0.5 0.4-0.8 0.5q-0.1 0-0.2 0.1l-0.1 0.1c-0.4 0.2-0.4 0.2-0.7 0.2-0.1 0.2-0.1 0.4-0.2 0.6q0 0.3-0.1 0.6l-0.1 0.3-0.2-0.2c-0.2-0.1-0.2-0.2-0.3-0.3q0-0.1-0.1-0.2l-0.1-0.1 0.1-0.1q0.1-0.2 0.1-0.3c0 0 0 0-0.1 0l-0.1 0.3c0 0.2 0 0.3 0 0.3q0 0-0.1 0.1c0 0.1-0.1 0.1-0.1 0.1q-0.1 0-0.2 0l-0.2 0.1v-0.2-0.3q-0.1 0.1-0.2 0.4l-0.1 0.2-0.2-0.1c-0.3-0.3-0.4-0.4-0.3-0.6h-0.2c-0.1 0.4-0.2 0.7-0.5 0.8l-0.1 0.1-0.1-0.1c-0.4-0.5-0.4-0.7-0.2-0.9-0.3 0-0.3-0.1-0.3-0.3l-0.2-0.1 0.2-0.1c0.2-0.2 0.3-0.3 0.4-0.3zm2.5 0l0.1 0.1c0.1 0.1 0.1 0.1 0.1 0.1 0.1 0.1 0.1 0.1 0.3 0.2 0-0.1 0-0.2 0.1-0.2-0.1 0-0.2 0.1-0.3 0.1l-0.3-0.3c0.1 0 0.1-0.1 0.1-0.1q0 0-0.1 0.1zm-1.4-0.5c0.2 0.1 0.3 0.2 0.5 0.2l-0.1-0.3c-0.1 0.1-0.3 0.1-0.4 0.1zm1 0.5q0.1 0 0.1 0.1l0.1 0.1 0.1-0.2c-0.1 0-0.1 0-0.2 0v-0.1c-0.2 0-0.4-0.1-0.1-0.2v-0.1h0.1q-0.4 0.1-0.6 0.2c0.2 0 0.3 0.1 0.5 0.2zm-1.2 0.3q0-0.1 0.1-0.1zm0.2-0.1q-0.1-0.1-0.2-0.1zm0.5 0.1v0.1c-0.1 0-0.1 0-0.2 0.1h0.2c0-0.1 0-0.1 0-0.2zm-0.5-0.1v-0.1zm-0.1-0.1c0 0.1 0 0.2-0.1 0.3zm-0.5 0.7c0 0-0.1 0.1-0.1 0.1-0.1 0.1-0.2 0.1 0 0.3 0.1 0 0.1-0.2 0.1-0.4zm0.1-0.5q-0.1 0-0.2 0.1h0.1l0.1 0.1c0-0.1 0-0.2 0-0.2zm-0.3-0.6c0.1 0 0.3 0.1 0.4 0.1v-0.1h0.1c0-0.1-0.1-0.1-0.1-0.1-0.1 0-0.3 0-0.4 0.1zm2.8 1.2c0 0-0.1 0.1-0.1 0.1h0.1z"/><g style="opacity:.15"><g clip-path="url(#cp3)"><path fill-rule="evenodd" class="a" d="m226.3 30.2c0.1 0 0.1 0.1 0.3 0.3 0.2 0.1 0.2 0.1 0.4 0.3 0.3 0.3 0.4 0.4 0.8 0.6-0.2-0.4-0.2-0.2-0.4-0.7 0.5 0.3 0.5 0.5 1.2 0.9-0.1-0.3-0.3-0.6-0.6-0.9l-1.2-1.3c-0.1-0.2-0.2-0.2-0.4-0.4-0.8-0.8-2.5-3.9-2.9-4.9 0.1 0.9 1.7 3.8 2.3 4.5 0.4 0.5 0.9 0.7 1 1.4-0.6-0.3-1.1-1.3-1.5-1.7-1.3-1.6-1.1-1.9-1.9-3.1 0.1 0.5 0.3 0.9 0.6 1.4l0.6 1.2c0.7 1.2 0.7 0.6 1.5 2l0.2 0.2c-0.1 0.1-0.1 0.2 0 0.2z"/></g></g><g style="opacity:.15"><g clip-path="url(#cp4)"><path class="c" d="m226.3 30.2c0.1 0 0.1 0.1 0.3 0.3 0.2 0.1 0.2 0.1 0.4 0.3 0.3 0.3 0.4 0.4 0.8 0.6-0.2-0.4-0.2-0.2-0.4-0.7 0.5 0.3 0.5 0.5 1.2 0.9-0.1-0.3-0.3-0.6-0.6-0.9l-1.2-1.3c-0.1-0.2-0.2-0.2-0.4-0.4-0.8-0.8-2.5-3.9-2.9-4.9 0.1 0.9 1.7 3.8 2.3 4.5 0.4 0.5 0.9 0.7 1 1.4-0.6-0.3-1.1-1.3-1.5-1.7-1.3-1.6-1.1-1.9-1.9-3.1 0.1 0.5 0.3 0.9 0.6 1.4l0.6 1.2c0.7 1.2 0.7 0.6 1.5 2l0.2 0.2c-0.1 0.1-0.1 0.2 0 0.2z"/></g></g><path fill-rule="evenodd" class="a" d="m208.7 32.3l-0.7-0.2c0.1 0.2 0.4 0.3 0.7 0.6-0.7-0.2-0.8-0.6-0.6 0.2 0 0.4-0.1 0.9 0.5 1.3 0.4-0.7 0.3-1.2 0.3-2.1 0.5-0.2 1.2-0.4 1.6-0.7-0.4 0.2-1.5 0.1-1.8 0.6v0.2q0 0 0 0.1z"/><path class="a" d="m208.1 31.9l0.5 0.2v-0.1-0.1c0.2-0.4 0.7-0.5 1.2-0.6 0.2 0 0.5-0.1 0.6-0.1l0.2 0.3c-0.2 0.2-0.6 0.3-0.9 0.5-0.2 0-0.4 0.1-0.5 0.2 0 0.2-0.1 0.3-0.1 0.5 0 0.6 0 1-0.3 1.5l-0.1 0.2-0.2-0.1c-0.5-0.4-0.6-0.8-0.6-1.1 0-0.1 0-0.2 0-0.3 0-0.4-0.1-0.6 0.1-0.7zm0.6 0.8l-0.1 0.1q-0.4-0.1-0.5-0.2c0 0 0 0-0.1 0-0.1 0 0.2 0.1 0.2 0.3 0 0.1 0 0.2 0 0.3 0 0.2 0.1 0.5 0.3 0.7 0.2-0.4 0.2-0.7 0.2-1.1z"/><path fill-rule="evenodd" class="a" d="m206.8 31.5h0.6c-0.1 0.6 0 0.4-0.6 0.3 0.2 0.1 0.3 0.3 0.5 0.5-0.3-0.2-0.6-0.3-0.8-0.4-0.1 0.4 0 0.4 0.3 0.6-0.3 0.2 0 0.8 0.1 1.3l0.1-0.1c0.3-0.3 0.2-0.1 0.3-0.6v-0.2q0-0.1 0.1-0.1c0.3-1.7-0.2-1.5 1.3-2.1 0 0 0.1-0.1 0.2-0.1 0.3-0.1-0.1 0 0.1 0-0.6-0.1-1.9 0.4-2.2 0.9z"/><path class="a" d="m207.2 32.4l-0.2 0.2c-0.2 0.1-0.1 0.4 0 0.7l0.1 0.1q0 0 0 0h0.4c0 0.1 0 0.1 0 0.2-0.1 0-0.1 0.1-0.2 0.1q0 0.1-0.1 0.2l-0.1 0.1-0.2 0.3-0.1-0.4q-0.1-0.2-0.2-0.4c-0.1-0.4-0.2-0.7-0.1-0.9-0.2-0.2-0.3-0.3-0.2-0.7v-0.3l0.1 0.1 0.2-0.3c0.3-0.4 1.1-0.8 1.7-0.9 0.2 0 0.3 0 0.4-0.1 0.1 0 0.1 0 0.2 0 0 0 0 0 0 0 0.1 0 0.3 0 0.3 0.1 0 0.1 0 0.2-0.2 0.3q-0.1 0-0.1 0l-0.1 0.1h-0.1l-0.2 0.1c-0.4 0.2-0.6 0.3-0.7 0.4-0.1 0.1-0.1 0.3-0.1 0.6-0.1 0.2-0.1 0.5-0.1 0.9q0 0 0 0v0.1l-0.1 0.1c0 0.2 0 0.3 0 0.3m1.5-2.7h0.1c0 0 0 0 0-0.1 0 0 0 0 0 0h-0.1zm-2 2.7q0-0.1 0.1-0.4v-0.1q0-0.1 0-0.1 0 0 0 0 0.1-0.2 0-0.4m0.3 1.1l-0.4-0.1zm1.6-3v0.1h0.1q0-0.1-0.1-0.1zm-2.3 1.3l0.1-0.1h-0.3 0.1c0 0 0.1 0 0.1 0.1zm0.5-0.1q0.1 0 0 0c0 0 0 0 0 0zm0-0.4h0.2c0-0.1 0-0.1 0-0.2q-0.1 0.1-0.2 0.2z"/><g style="opacity:.15"><g clip-path="url(#cp5)"><path fill-rule="evenodd" class="a" d="m207.3 41.8l0.4 0.7c0.4 0.1 0.8 0.2 1 0.2 1 0.1-0.1 0.1 0.8-0.3-0.3-0.1-0.4 0-0.7-0.2l0.4-0.2c-0.4-0.1-0.6 0-0.9-0.2-0.6-0.3-0.5-0.2-1 0z"/></g></g><g style="opacity:.15"><g clip-path="url(#cp6)"><path class="a" d="m207.6 42.6l-0.5-0.7-0.1-0.2 0.2-0.1q0.1 0 0.2 0c0.4-0.2 0.4-0.2 0.9 0.1 0.2 0.1 0.3 0.1 0.5 0.1 0.1 0 0.3 0 0.5 0.1v0.3q0.1 0 0.3 0v0.4c-0.3 0.1-0.3 0-0.4 0q0 0 0.1 0.1c0.2 0.2 0.2 0.3-0.2 0.3q-0.1 0-0.4-0.1c-0.1 0-0.2 0-0.4 0-0.2-0.1-0.4-0.1-0.6-0.2h-0.1zm0-0.7l0.3 0.5q0.3 0 0.6 0.1 0.2 0.1 0.3 0.1 0.1 0 0.2 0 0-0.1 0.1-0.1-0.2 0-0.4-0.1l-0.3-0.2 0.2-0.1q-0.2 0-0.3-0.1c-0.5-0.2-0.5-0.2-0.7-0.1z"/></g></g><path class="a" d="m209.5 32.4l0.4 0.1c0.2-0.4 0.6-0.5 1-0.6 0 0 0.1 0 0.2 0 0.1-0.1 0.3-0.1 0.3 0l0.1 0.3c-0.2 0.1-0.3 0.1-0.4 0.2q-0.1 0-0.2 0.1c-0.2 0.1-0.2 0.1-0.3 0.1h-0.1l-0.1 0.1v0.1c-0.1 0.6-0.1 0.9-0.4 1.5v0.1h-0.2l-0.1-0.1c0 0 0 0-0.1 0q-0.1-0.1-0.1-0.2h-0.1c-0.1-0.2-0.3-0.7-0.3-1.1 0 0-0.1-0.1-0.1-0.2 0-0.1 0-0.1 0-0.2v-0.3l0.3 0.1h0.1zm0.5 0.6l-0.2 0.2c-0.1 0-0.1 0-0.2 0 0 0 0-0.1 0-0.1-0.1 0-0.1 0-0.1 0 0 0.4 0.2 0.8 0.2 0.9h0.1c0.1-0.3 0.2-0.6 0.2-1z"/><g style="opacity:.15"><g clip-path="url(#cp7)"><path class="a" d="m200.1 31.4c0.2-0.2 0.4-0.1 0.6 0l-0.2-0.3 0.4 0.1 0.5 0.1h0.2v0.2q0 0.2-0.1 0.4c0 0.1-0.1 0.2-0.1 0.4q-0.1 0.2-0.1 0.3c0 0.2 0 0.2-0.2 0.4l-0.1 0.3-0.2-0.3q0-0.1 0-0.1c0-0.1-0.1-0.1-0.1-0.1q0 0.1-0.1 0.3l-0.1 0.2-0.2-0.1c-0.3-0.3-0.4-0.4-0.2-0.8-0.1-0.1-0.2-0.1-0.2-0.5v-0.3l0.2 0.1-0.2-0.2zm1 0.6c0 0-0.1 0-0.1 0l-0.3 0.3-0.3-0.1c0 0 0 0 0 0l0.1 0.1c0.3 0.1 0.4 0.1 0.5 0.2q0-0.1 0-0.3z"/></g></g><g style="opacity:.15"><g clip-path="url(#cp8)"><path fill-rule="evenodd" class="a" d="m220.3 44c0.4 0.2 1.5 0.2 1.9 0l-0.5-0.1c0.3-0.2 0.1 0 0.2-0.3-0.4-0.2 0 0-0.4-0.3-0.6 0.1-1 0.2-1.2 0.7z"/></g></g><g style="opacity:.15"><g clip-path="url(#cp9)"><path class="a" d="m220.3 44.2c0 0-0.1 0-0.1 0l-0.2-0.1 0.1-0.1q0.2-0.5 0.6-0.7 0.3-0.1 0.8-0.2l0.1 0.1q0.2 0.1 0.3 0.2c0 0 0 0 0.1 0l0.2 0.1-0.1 0.2q0 0 0 0l0.1 0.1 0.1 0.3c-0.3 0.1-0.9 0.2-1.4 0.2-0.1 0-0.2-0.1-0.3-0.1-0.1 0.1-0.2 0.1-0.3 0zm0.2-0.3h0.1c0.1 0 0.2 0 0.3 0q0.2 0 0.4 0l0.3-0.2h0.1c-0.1 0-0.1 0-0.1 0 0-0.1 0-0.1-0.1-0.1q0 0 0-0.1c-0.3 0-0.5 0.1-0.7 0.2q-0.2 0.1-0.3 0.2zm1.3-0.5c0 0 0-0.1 0 0z"/></g></g><g style="opacity:.15"><g clip-path="url(#cp10)"><path class="a" d="m198.6 31.4c0.3-0.1 0.4-0.1 0.6 0l0.1-0.2h0.1c0.1-0.1 0.1-0.2 0.2-0.3l0.3 0.2c0 0.3 0 0.4 0 0.6 0 0.2 0 0.3-0.1 0.6v0.2c0 0-0.1 0-0.1 0 0.1 0.1 0.1 0.1 0 0.4l-0.1 0.1h-0.1c-0.6 0-0.7-0.2-0.7-0.4-0.1-0.1-0.1-0.2-0.2-0.2l-0.1-0.2 0.1-0.1h0.1q0.1-0.1 0.1-0.1 0-0.1-0.1-0.1 0-0.1-0.1-0.1 0 0 0-0.1l-0.2-0.2zm1 0.7q-0.1 0.1-0.2 0.2-0.2 0.1-0.3 0c0 0.1 0 0.2 0.1 0.2 0 0.1 0 0.2 0.2 0.2q0-0.1 0-0.2l0.1-0.3c0 0 0-0.1 0.1-0.1z"/></g></g><g style="opacity:.15"><g clip-path="url(#cp11)"><path class="a" d="m211.3 30.7l0.4-0.3h0.1c-0.6-0.7-2.6-3.5-3.9-5.3q-0.4-0.6-0.6-1c-0.2-0.3-0.3-0.5-0.3-0.6l0.3-0.2c0.3 0.2 0.6 0.6 0.8 1 0 0 0-0.1 0-0.1l0.3-0.2 0.3 0.3 0.3-0.2c0 0.1 0.2 0.3 0.4 0.5-0.3-0.5-0.6-1-0.7-1.4l0.3-0.2c0.2 0.2 0.3 0.3 0.4 0.5 0.1 0.1 0.1 0.1 0.1 0.2q0.1 0.2 0.2 0.3c0.2 0.2 0.3 0.4 0.4 0.6q0.1 0.3 0.3 0.5l2.8 4 0.1 0.2c0.3 0.4 0.9 1.2 1.1 1.7l0.3-0.1 0.1 0.2c0.2 0.3 0.5 0.9 0.7 1.2q0.1 0 0.2-0.1c0.4 0 0.8 0 1.1 0.1 0-0.1 0-0.2 0.1-0.3v-0.2l0.2 0.1c0.2 0 0.3 0.1 0.3 0.2 0.2-0.3 0.4-0.5 0.7-0.7l0.3 0.3-0.2 0.2c0.2-0.2 0.4-0.4 0.6-0.6q0.1-0.1 0.2-0.2l0.3 0.2-0.6 1c0.1 0 0.3 0 0.4 0h0.1 0.2q0.1 0 0.2 0h0.1c0 0 0.1 0 0.1 0 0.2 0 0.3 0 0.4 0v-0.1q0-0.2 0-0.4c-0.1 0-0.1 0.1-0.2 0.1q0 0.1 0 0.1l-0.4-0.1q0 0 0.1-0.1c0 0 0 0 0 0q0.1-0.2 0.2-0.3c0.1-0.1 0.1-0.2 0.2-0.3-0.1 0-0.1 0.1-0.2 0.1-0.1 0.2-0.2 0.4-0.4 0.6l-0.3-0.3c0.1-0.1 0.2-0.3 0.3-0.5q0.2-0.3 0.4-0.6 0.1-0.3 0.2-0.4l0.1-0.1c-0.1 0.1-0.1 0.1-0.2 0.2-0.1 0.1-0.2 0.2-0.3 0.3l-0.3-0.1c0.1-0.3 0.9-1.6 1.4-2.5 0.1-0.1 0.3-0.3 0.4-0.4q0.1-0.2 0.2-0.4l0.2-0.1 0.3 0.1c-0.1 0.3-0.3 0.7-0.6 1v0.1l0.2 0.1c0.2 0.1 0.4 0.4 0.5 0.7h0.2c0.1 0 0.1 0 0.2 0 0-0.1-0.1-0.1-0.1-0.1-0.5-0.9-0.2-1.1 0.1-1.3q0.1-0.1 0.2-0.3c0.1-0.2 0.1-0.2 0.1-0.3-0.1-0.1-0.1-0.2-0.1-0.4-0.1-0.3 0-0.5 0.1-0.6 0 0 0.1-0.1 0-0.2v-0.3l0.3 0.2c0.1 0 0.1 0 0.1 0h0.1c0.2 0.1 0.3 0.2 0.3 0.3q0.1 0.1-0.1 0.2l0.5 0.7c0.2 0.4 0.7 1.2 1.2 1.8q0.1 0.2 0.2 0.3 0.1 0.2 0.2 0.3l0.1 0.1q0.3 0.3 0.4 0.5c0.1 0.1 0.1 0.1 0.2 0.1 0.2 0.1 0.2 0.1 0.3 0.2 0.1 0.1 0.1 0.1 0.1 0.1 0.1 0.1 0.2 0.2 0.2 0.2q0.1 0.1 0.2 0.2l0.1 0.1 0.2-0.2c0.3 0.1 0.4 0.3 0.6 0.4 0.2 0.1 0.3 0.3 0.7 0.5 0.1 0 0.1 0.1 0.1 0.2 0.1 0 0.1 0 0.1 0v0.1q0-0.1 0-0.1v0.1c0.1 0 0 0.1 0 0.1 0.2 0 0.3 0 0.5 0.1q0.4 0 0.8 0.1c0.2 0 0.4 0 0.6 0 0.3 0 0.6 0 0.9 0.1 0.1 0 0.1 0 0.1 0h0.1l0.2 0.1-0.1 0.4q-0.1 0-0.2 0 0.3 0 0.4 0.1v0.3h-0.1l0.1 0.4h-0.1 0.1l0.1-0.3c0 0 0-0.1 0-0.2 0-0.1 0-0.2 0.1-0.3l0.1-0.3 0.2 0.2c0 0 0 0 0 0 0.2 0 0.2 0.1 0.2 0.2 0 0 0 0 0 0.1 0.4 0.8-0.2 1.9-0.6 2.8q-0.2 0.3-0.2 0.5l-0.1 0.1c-0.2 0.4-0.2 0.5-0.5 0.6l0.1 0.1-0.1 0.1-0.2 0.3q-0.1 0.2-0.2 0.4c-0.1 0.3-0.2 0.5-0.4 0.8-0.5 0.8-0.6 0.9-0.8 0.9q0 0 0 0.1 0 0 0 0.1v0.1l-0.1 0.1c-0.1 0-0.2 0.1-0.2 0.1l-0.1 0.1c0.1-0.1-0.3-0.1 0.4 0.4-0.3 0-0.4 0.1-0.6-0.1-0.1 0-0.1 0-0.2 0q0 0-0.1 0l0.2 0.2-0.2 0.1q-0.1 0.1-0.6 0.2c0.1 0 0.1 0.1 0.2 0.2l0.1 0.2h-0.2c-0.1 0.1-0.2 0.1-0.4 0.1l0.1 0.2-0.2 0.1c0 0 0 0 0 0.1-0.1 0-0.1 0-0.1 0h-0.1-0.3c0 0 0 0 0.1 0q0 0 0 0.1l0.2 0.1-0.2 0.2q-0.2 0.1-0.5 0.1c0 0 0 0.1 0 0.1l0.1 0.2-0.2 0.1q-0.1 0-0.4 0.1l0.2 0.1-0.2 0.2h-0.1c0 0-0.1 0.1-0.3 0.1h-0.3c0 0 0 0 0.1 0l0.3 0.2-0.3 0.2q-0.1 0-0.4 0.1v0.1c-0.2 0.4-0.4 0.5-0.7 0.5l0.1 0.2h-0.3l-5.2-0.1c-0.3 0-0.5 0-0.8 0h-0.1-0.3v-0.3q0.2 0 0.4 0h0.8q0.3 0 0.5-0.1 0 0-0.1 0-0.1 0-0.3 0c-0.1 0-0.3 0-0.5 0-0.5 0-1.1 0-1.6-0.1v-0.4c0.2 0 0.4 0 0.6 0 0.1 0 0.2 0 0.3-0.1l-0.3-0.1 0.1-0.4c0.1 0 0.1 0 0.2 0q0.1 0 0.1 0c-0.2 0-0.6 0-1 0-0.1 0-0.3 0-0.5 0v-0.4c0.1 0 0.2 0 0.3 0q-0.1 0-0.2-0.1h-0.2q-0.1 0-0.1 0-0.1 0-0.1 0c-0.1 0-0.1-0.1-0.1-0.1-0.1-0.1-0.1-0.2 0-0.3-0.1 0-0.3 0-0.4-0.1-0.1 0-0.2 0-0.3 0l-0.1-0.1c-0.1 0-0.1 0-0.2 0-0.1-0.1-0.1-0.2-0.1-0.2-0.3-0.2-0.8-0.2-1.3-0.2-0.3 0-0.5 0-0.7 0v-0.4l0.8-0.1q-0.2 0-0.5 0-0.1 0-0.2 0h-0.1v-0.1q-0.1-0.1-0.1-0.2c-0.3 0-0.4-0.1-0.6-0.1-0.1 0-0.2-0.1-0.4-0.1-0.3 0-0.7 0-1 0-0.1 0-0.2 0-0.4 0l-0.1-0.3c0 0 0.1-0.1 0.1-0.1-0.5-0.1-0.8 0-1.1 0-0.5 0.1-0.8 0.1-1.1-0.2l-0.2-0.2 0.3-0.1 0.1-0.1c-0.1 0-0.1 0-0.1 0-0.1 0-0.1-0.1-0.1-0.1l-0.1-0.1-0.2 0.1q-0.2 0.1-0.2 0.2 0 0 0.1 0l0.2 0.2-0.2 0.1c-0.3 0.2-0.7 0.2-1.3 0.1-0.4 0-0.8-0.1-1.2 0l-0.1 0.4c1.1 0.8 1.9 0.8 2.5 0.8 0.6 0 1 0.1 1.6 0.6 0 0 0.2 0.2 0.3 0.4 0 0 0 0 0.1 0.1q0 0 0 0.1 0.1 0.3 0 0.4h0.1q0.1 0.2 0.3 0.3c0.2 0.2 0.4 0.4 0.6 0.7l0.1 0.1c0.2 0.4 0.4 0.6 0.7 0.9 0.1 0.1 0.1 0.1 0.2 0.2 0.1 0.1 0.2 0.2 0.3 0.3 0.4 0.2 0.6 0.4 0.8 0.7 0.2 0.2 0.3 0.6 0.4 1l0.1 0.2h-0.3-0.1c-0.1 0-0.2 0-0.2 0-0.2 0-0.2-0.1-0.1-0.2 0-0.1-0.1 0.1-0.1 0.1-0.1 0-0.2-0.1-0.2-0.1-0.1 0-0.2 0-0.2 0l-0.4-0.2 0.3-0.2h0.1l-0.1-0.1-0.1-0.1c0-0.1-0.1-0.2-0.3-0.2v-0.3c-0.5-0.1-0.7 0.2-0.9 0.4-0.3 0.3-0.5 0.5-0.8 0.5l-0.2-0.1v-0.2l0.1-0.3c-0.3 0-0.5 0-0.6 0.1q-0.2 0-0.4 0l-1.2-0.1-0.3-0.1 0.2-0.3h0.1q-0.5 0-0.9-0.1v-0.3q-0.4 0-0.7-0.1l-0.1-0.3c0 0-0.1 0-0.2 0-0.1 0-0.2 0-0.4-0.1h-0.5l0.4-0.3q0 0 0 0-0.3-0.1-0.6-0.1l-0.4-0.1 0.3-0.3q0 0 0 0c-0.3-0.1-0.6-0.1-0.7-0.2l-0.2-0.2 0.1-0.1c-0.2 0-0.3-0.1-0.4-0.1 0-0.1 0-0.1 0-0.1-0.1 0-0.1 0-0.1-0.1l-0.2-0.2q-0.2 0-0.3-0.1l-0.2-0.2 0.1-0.1c-0.1 0-0.3-0.1-0.4-0.2l-0.1-0.2c-0.1-0.1-0.2-0.1-0.4-0.1l-0.2-0.1 0.1-0.2c0.1-0.1 0.1 0 0.1 0v-0.1q0 0-0.1 0c-0.1-0.1-0.2-0.1-0.3-0.1l-0.2-0.1 0.1-0.2c0 0 0 0 0-0.1h-0.3l-0.4-0.1 0.3-0.2q0-0.1 0.1-0.1c-0.2 0-0.4-0.1-0.5-0.1l-0.2-0.2 0.2-0.2c-0.1 0-0.2 0-0.3 0l-0.2-0.1 0.1-0.2c0-0.1 0-0.1 0.1-0.2-0.2 0-0.4-0.1-0.5-0.2l-0.2-0.2h0.2q-0.1 0-0.1-0.1c-0.2 0-0.2-0.1-0.2-0.2q0 0-0.1-0.1l-0.1-0.2q-0.1-0.1-0.2-0.2l-0.2-0.3h0.1c-0.1 0-0.1 0-0.2-0.1h-0.1l0.1-0.2c0 0 0-0.1 0-0.1q0 0-0.1-0.1c-0.1 0-0.2-0.1-0.3-0.2 0-0.1 0-0.1 0-0.2l-0.1-0.1 0.1-0.1q-0.2 0-0.3-0.1l-0.2-0.1 0.2-0.2c-0.1 0-0.2 0-0.2 0l-0.2-0.1 0.1-0.2c0 0 0-0.1 0-0.1q0-0.1 0-0.1h-0.2l-0.1-0.1v-0.1c-0.1-0.2-0.1-0.3 0-0.3-0.3-0.2-0.3-0.3-0.4-0.6 0-0.1 0-0.2-0.1-0.4 0-0.1 0-0.1 0-0.2 0-0.1-0.1-0.2-0.1-0.2 0-0.2 0-0.3 0-0.3q0-0.1-0.1-0.1l-0.2-0.2 0.3-0.1 0.1-0.1-0.2-0.1 0.2-0.1h-0.1q0 0-0.1-0.1h-0.2v-0.1c-0.3-1.4-0.3-1.6 0-2.6 0-0.1 0.1-0.2 0.1-0.4v-0.1h0.2c0 0 0 0 0 0v-0.1h0.2c0.3-0.1 1.7-0.9 2.6-1.5 0.2-0.1 0.4-0.2 0.5-0.3q0.2-0.2 0.4-0.3c0.3-0.2 1.9-1.2 2.8-1.8q0.3-0.2 0.5-0.3 0.2-0.1 0.3-0.2l0.3 0.3c-0.1 0.1-0.6 0.5-1.1 0.9 0.1-0.1 0.2-0.2 0.3-0.2l0.4-0.1-0.1 0.3c-0.1 0.3-1 0.9-2.1 1.7 0.1 0 0.1 0 0.1-0.1l0.4-0.1-0.2 0.4q0 0.1-0.2 0.3 0.1-0.1 0.3-0.1l0.2 0.3-0.2 0.2c0.1-0.1 0.2-0.1 0.3-0.1l0.5-0.1-0.3 0.4q0 0 0 0h0.1q0.1 0 0.2-0.1 0.2-0.1 0.3-0.2c0.1 0 0.1-0.1 0.4-0.2l0.4-0.2-0.1 0.4-0.1 0.2-0.1 0.1q-0.3 0.2-0.7 0.4c-0.1 0.1-0.2 0.1-0.4 0.2 0.3 0.1 0.3 0.1 0.4 0.2 0 0 0.1 0.1 0.1 0.1q0.1 0 0.1 0 0.1 0 0.1 0c0.1 0 0.2 0 0.3 0 0.1 0.1 0.1 0.1 0.2 0.1 0 0-0.1 0 0.1 0 0.2 0 0.4-0.2 0.6-0.4 0.2-0.2 0.6-0.4 1.1-0.7q0.1-0.1 0.2-0.1c0.4-0.2 0.6-0.3 1.1-0.1l0.2 0.1-0.2 0.2c0 0-0.1 0-0.1 0v0.1l-0.6 0.2c-0.3 0.2-0.8 0.4-1.2 0.6l0.1 0.2c0.1 0.1 0.1 0.2 0 0.3 0 0 0.1-0.1 0.3 0 0-0.1 0-0.1 0-0.1l0.1-0.1c0 0 2.2-1.5 2.9-0.9l0.2 0.1q0.2 0.1 0.4 0.2c0.1 0.1 0.2 0.1 0.3 0.2l0.8 0.3h0.1l0.2 0.1c0 0.1 0.1 0.1 0.1 0.1 0.1 0 0.1 0 0.2 0.1 0.1 0.1 0.2 0.1 0.2 0.2v-0.2h0.3q-0.1 0-0.2 0zm0.8 0q0.1 0 0.3 0.2l0.2 0.2-0.1 0.1h0.4l0.1 0.4h-0.1c-1.2 0.6-1.4 0.3-1.7 0-0.1-0.1-0.1-0.2-0.2-0.2-0.1-0.1-0.1-0.1-0.2-0.1q0 0-0.1-0.1l-0.2-0.1-0.8-0.3c-0.1-0.1-0.2-0.2-0.4-0.2-0.1-0.1-0.2-0.2-0.2-0.2-0.4-0.1-0.9 0.2-1.2 0.4l-0.1 0.1q-0.4 0.3-0.7 0.4c-0.3 0.3-0.4 0.3-0.8 0.1 0 0.1 0 0.2 0 0.3 0 0.3 0 0.5-0.1 0.8q0 0.1-0.1 0.2v0.1c0 0 0 0.1 0 0.2 0 0.1 0 0.1 0 0.1q0 0.1 0 0.2c-0.1 0.1-0.1 0.1-0.3 0.2h-0.1-0.1l-0.1-0.1c-0.1-0.1-0.2-0.2-0.2-0.3q-0.1 0.1-0.4 0.2l-0.1 0.1-0.1-0.1c-0.2-0.4-0.2-0.5-0.3-0.8v-0.1c0-0.1 0-0.2 0-0.4 0-0.1 0.1-0.2 0.1-0.4v-0.1c0 0.1 0 0.1 0 0.2v0.1c-0.1 0.3-0.2 1.1-0.4 1.3l-0.1 0.1c-0.5 0-0.5-0.3-0.5-0.5 0 0 0 0 0-0.1l-0.1-0.1c0-0.1 0-0.1 0-0.2-0.1-0.1-0.1-0.1-0.1-0.4l-0.1-0.3c0 0 0-0.1 0-0.2v-0.1l-0.2 1q0 0.3 0 0.4 0 0.1 0 0.2c-0.1 0.1-0.1 0.1-0.2 0.2-0.1 0-0.1 0-0.1 0l-0.1 0.1h-0.1c-0.1-0.1-0.1-0.1-0.1-0.1-0.2-0.1-0.3-0.3-0.3-0.4-0.1-0.2 0-0.3 0-0.5-0.1 0-0.1 0-0.2 0l-0.1-0.1 0.1-0.1q0-0.1 0-0.1c0-0.1 0-0.2 0.1-0.3v-0.1q-0.1-0.1-0.2-0.3l0.1-0.2-0.3 0.1 0.1-0.3c0-0.1 0-0.1 0-0.2-0.4 0.3-0.8 0.6-1.1 0.6l-0.4 0.1 0.2-0.4c0.1-0.1 0.4-0.4 0.7-0.6h-0.1q-0.2 0.2-0.4 0.3-0.1 0.1-0.2 0.1c0 0 0 0 0 0-0.1 0.1-0.2 0-0.2 0 0 0 0 0 0 0v-0.1-0.2-0.1q0 0 0.1-0.1 0.2-0.1 0.4-0.3c0.2-0.1 0.3-0.2 0.5-0.3-0.2 0.1-0.4 0.2-0.5 0.3-0.6 0.4-1.1 0.7-1.5 0.9l-0.2-0.3c0.1-0.1 0.3-0.3 0.5-0.4l-0.6 0.3c-0.1 0.1-0.2 0.2-0.2 0.2-0.1 0.3 0 0.6-0.3 1.6-0.1 0.1-0.1 0.2-0.1 0.2q0 0 0 0.1c0 0.1 0 0.1-0.1 0.2h-0.1l-0.1 0.1-0.1-0.1q-0.2-0.1-0.3-0.2c-0.3 0.2-0.2 0-0.1-0.2q0 0 0-0.1h-0.1l0.1-0.1v-0.1q0.1-0.1 0.1-0.1c0.1-0.2 0.2-0.3 0.3-0.3 0.1-0.2 0.2-0.3 0.2-0.4 0-0.2 0-0.4 0-0.7v-0.1l0.1-0.1c0.3-0.1 0.7-0.4 1.1-0.7q0.2-0.2 0.3-0.3c-0.7 0.5-1.5 1-1.9 1.1 0 0.1 0 0.2-0.1 0.2-0.1 0-0.1 0-0.2 0l-0.1 0.2c-0.2 0.9-0.3 1.1 0 2.3 0.2 0 0.4 0 0.6 0.2l0.2 0.2-0.2 0.1h-0.3q0 0 0 0.1l0.1 0.2-0.1 0.1-0.1 0.1c0 0 0 0 0 0 0.1 0.2 0.1 0.2 0 0.3v0.1c0 0.1 0 0.1 0 0.2q0 0.1 0.1 0.2 0.1 0.2 0.1 0.3c0 0.3 0.1 0.3 0.4 0.4l0.3 0.1-0.2 0.2q0 0.1-0.1 0.1h0.1q0 0 0.1 0.1l0.5 0.1v0.4c1.2 0.1 4.8 0.1 8.1 0.1 3.3 0 6.5 0 7.5 0v0.3c0.2 0 0.5 0 0.7 0 0.6-0.1 1.2-0.1 1.9-0.3 0.1 0 0.3 0 0.4-0.1 0.2 0 0.4 0 0.6 0 1.1-0.1 2.8-0.2 3.1-0.1v0.4h-0.4c-1.4 0.2-5.8 0.8-6.2 1-0.4 0.2-0.7 0.2-1 0.2q-0.3 0-0.6 0.1c-0.2 0.1-0.3 0.2-0.4 0.2-0.3 0.1-0.3 0.1-1 0.1-0.5-0.1-0.6 0-0.7 0.1-0.1 0.1-0.3 0.3-0.6 0.3l-0.6 0.3q-0.1 0.1-0.2 0.1c0.2 0 0.3 0 0.5 0.1v0.3c0.5 0 1 0 1.8 0.3v0.2q0.2 0 0.5 0c0.2 0 0.3 0 0.5 0.1 0.1 0 0.3 0 0.6 0.1h0.1 0.1q0.1 0.2 0.1 0.3 0.1 0 0.3 0l-0.1-0.4h0.1c0.1 0 0.3 0 0.6-0.1 0.2 0 0.6 0 1 0 2-0.1 5.2-0.1 6-0.1 1.2 0.1 2.4 0 3.5 0 0.7 0 1.4 0 2.1 0q-0.1 0-0.2 0v-0.4c0.4-0.1 0.9-0.1 1.4-0.1q0.4 0 0.7 0c0 0 0 0 0 0l-0.3-0.2 0.3-0.1c0.1-0.1 0.2-0.2 0.3-0.2 0.1-0.6 0.2-0.7 0.3-0.5 0.1-0.1 0.1-0.1 0.1 0.5 0.1 0 0.1-0.1 0.5-0.7q0.2-0.3 0.4-0.7c0-0.1 0.1-0.3 0.2-0.4l0.1-0.2c-0.1 0-0.1 0-0.2-0.1 0 0 0 0 0-0.1q0 0-0.1 0l-0.1-0.3h0.3c0.5 0 0.5-0.1 0.6-0.4l0.1-0.1c0-0.2 0.2-0.4 0.2-0.5 0.4-0.7 0.8-1.7 0.7-2.3v0.1l-0.5 1.7-0.1 0.3-0.3-0.2q0-0.1 0-0.1c-0.1 0-0.1 0-0.2-0.2-0.1-0.3-0.1-0.4 0-0.5-0.1 0-0.1 0-0.1 0l-0.2-0.1 0.1-0.2c0.1-0.1 0.2-0.2 0.4-0.3h0.1c-0.1-0.1-0.2-0.1-0.3-0.1l-0.3-0.2c0 0-0.1-0.1-0.2-0.1q-0.4-0.1-0.9-0.3l0.1-0.2q-0.5 0-0.9-0.1-0.8-0.2-1.6-0.4c-0.3-0.1-0.6-0.2-0.9-0.3v-0.2c-0.5-0.1-0.9-0.2-1.1-0.3h-0.2v-0.4h0.1c0.3 0.1 0.7 0.1 1 0.2l0.9 0.1c-0.4-0.2-0.4-0.2-0.8-0.6q-0.1-0.1-0.1-0.1c-0.1-0.1-0.1-0.1-0.2-0.2q-0.1 0-0.1-0.1-0.1-0.1-0.2-0.2c-0.2 0-0.3 0-0.4-0.2-0.1-0.1-0.2-0.3-0.4-0.5l-0.1-0.1q-0.1-0.1-0.2-0.3c0-0.1-0.1-0.2-0.2-0.3-0.4-0.6-0.9-1.4-1.2-1.8l-0.5-0.9c-0.1 0.1-0.1 0.2-0.1 0.4q0 0.2 0.1 0.3c0 0.1 0.1 0.3-0.1 0.6-0.1 0.2-0.2 0.3-0.3 0.4-0.2 0.1-0.3 0.2 0 0.8 0.1 0.2 0.5 0.6 0.8 1.1 0.4 0.6 0.9 1.2 1 1.4v0.2h-0.2c-0.1 0.1-0.3 0-0.5-0.1l-0.2 0.2h-0.1q-0.1-0.1-0.2-0.1 0 0 0 0.1l0.1 0.3-0.3-0.1c-0.3-0.1-0.6-0.5-0.8-0.7l-0.1-0.1c-0.4-0.4-0.6-0.6-0.6-0.7-0.1-0.1-0.1-0.1-0.1-0.2 0-0.1 0-0.2-0.2-0.7q-0.1-0.1-0.2-0.3c0 0 0-0.1 0-0.2-0.1-0.1-0.1-0.1-0.1-0.1 0-0.1-0.1-0.1-0.1-0.1q-0.3 0.5-0.5 0.9c0.4 0.3 0.4 0.3 0.1 0.8q0 0.1-0.1 0.2l0.1-0.1v0.3c0 0.2 0 0.3 0 0.5v-0.1 0.3q0 0.2 0 0.4c0 0.1 0 0.3 0 0.4 0 0.8-0.2 1.8-0.4 2.2l-0.1 0.3-0.2-0.2c0-0.1 0-0.1-0.1-0.1-0.1-0.2-0.1-0.4-0.1-0.5 0 0 0-0.1-0.1-0.1 0-0.1 0-0.1 0-0.1l-0.1-0.1c-0.3 0.2-0.5 0.3-0.8 0l-0.1-0.1 0.1-0.1c0.2-0.4 0.6-0.4 0.9-0.5 0.2-0.1 0.4-0.1 0.5-0.3q-0.1 0-0.2 0 0 0-0.1 0h-0.1c-0.1 0-0.1 0-0.2 0h-0.2-0.1q-0.2 0-0.4 0v0.1c-0.1 0.1-0.1 0.2-0.1 0.3-0.1 0.6-0.3 1.4-0.5 1.7l-0.1 0.1-0.2-0.1c-0.1-0.1-0.3-0.3-0.4-0.5q-0.1-0.3-0.1-0.5c0-0.1 0-0.2 0-0.3v-0.1l-0.1-0.1c-0.1-0.3-0.1-0.4 0-0.6v-0.1-0.1c0 0.1-0.1 0.2-0.1 0.4 0 0.2 0 0.4-0.1 0.7q0 0.3 0 0.4c-0.1 0.3-0.1 0.5-0.5 0.7h-0.2v-0.1c-0.1-0.1-0.1-0.2-0.1-0.2-0.1-0.1-0.1-0.1-0.2-0.4v-0.1c0 0 0-0.1 0.1-0.1h-0.1-0.1c-0.1 0.3-0.2 0.7-0.4 0.8h-0.1l-0.1-0.1c-0.3-0.2-0.3-0.2-0.3-0.5 0 0 0-0.1 0-0.2v-0.2h0.1c0 0-0.1-0.1-0.1-0.1l-0.2-0.1 0.1-0.1c0.2-0.3 0.5-0.5 0.9-0.6v-0.1c-0.1 0-0.3 0-0.3 0h-0.1-0.1c-0.2-0.2-0.6-0.8-0.8-1.2 0 0 0 0-0.1 0l-0.2 0.1-0.1-0.2c0-0.3-0.8-1.3-1.1-1.8l-0.2-0.2-1.7-2.5q0 0.2-0.1 0.4c0.2 0.3 0.3 0.4 0 0.8h-0.1c0.1 0.1 0.1 0.2 0.2 0.3q0.1 0.1 0.1 0.1c0.2 0.2 0.3 0.3 0.3 0.6l0.1 0.2h-0.3c0 0 0 0 0 0 0.4 0.5 0.7 0.9 0.7 1h0.2l-0.1 0.2c0 0 0 0 0 0 0 0.1 0 0.1 0 0.2 0.2 0.1 0.2 0.2 0.2 0.2zm3.8 1.8l0.1 0.1h0.1q0.1 0 0.3-0.1c-0.2 0-0.4 0-0.5 0zm0.8 1.4c0-0.1 0-0.1 0-0.2q-0.1 0.1-0.2 0.2c0 0.1 0 0.1 0 0.2h0.1c0.1 0 0.1-0.1 0.1-0.2zm0-0.5c0-0.1 0.1-0.2 0.1-0.2-0.2 0.1-0.2 0.1-0.3 0.1q-0.1 0-0.1 0.1l0.3-0.1zm0.1-0.6c-0.1 0-0.1 0-0.1 0v0.1zm1.2-0.3c0.1 0 0.1 0 0.2 0v-0.1q-0.1 0.1-0.2 0.1zm-0.4 0.5h0.1q-0.1 0-0.1-0.1c0 0.1 0 0.1 0 0.1zm0.4 1.3c0.1-0.2 0.2-0.7 0.3-1-0.1 0-0.2 0-0.3 0.1-0.1 0-0.2 0-0.3 0.2v0.1c0 0 0 0 0.1 0 0 0.1 0 0.3 0.1 0.4q0 0.1 0.1 0.2zm2.1-1.1v-0.1 0.1zm-0.1 0.5c0 0 0-0.1 0-0.1 0 0 0 0.1 0 0.1zm2.2-3.4c-0.1-0.1-0.2-0.2-0.3-0.3v0.1q0.1 0 0.3 0.2zm-0.9-1.9v-0.1c0 0.1 0 0.1 0 0.1zm2.5 2.4c-0.1-0.2-0.2-0.3-0.3-0.5 0.1 0.2 0.2 0.3 0.3 0.5zm3.9 0.8h0.4q-0.2-0.1-0.3-0.2zm-0.1 8.6q0.4 0 0.9 0 0.1 0 0.2 0h0.1q0.1 0 0.1 0h0.1c-0.3 0-0.7 0-1 0q-0.2 0-0.4 0zm-0.5 1.1c0.4 0 0.7-0.1 0.9-0.1 0 0-0.1 0-0.1 0-0.2 0-0.5 0-0.7 0.1 0 0-0.1 0-0.1 0zm-1.3 0q0.5 0 0.8 0h-0.1c-0.2 0-0.4-0.1-0.7 0zm-1.7 0h0.2q-0.1 0-0.2 0zm0.6 2.8c0.1 0 0.3 0.1 0.4 0q-0.2 0-0.4 0zm-6.5-1.4v0.1c0.3 0 0.7 0.1 0.8 0.3l0.2 0.2-0.2 0.1q-0.1 0.1-0.2 0.2h0.1l-0.1 0.2c0 0-0.1 0.1-0.1 0.1h0.3c0.2 0 0.4 0 0.6 0 0.1 0 0.2 0 0.2 0q0.2 0 0.3 0c0.1 0.1 0.1 0.1 0.2 0.3l0.1 0.1-0.1 0.1 2.2 0.1-0.1-0.2 0.2-0.1c0.1-0.1 0.4-0.1 0.6-0.1v-0.1l0.1-0.3q-0.3 0-0.6 0l-0.1-0.4c-0.9 0-2.5 0-2.7-0.1l-0.4-0.1 0.3-0.2c-0.6-0.1-1.1-0.1-1.6-0.2zm-2.4-1c0 0 0 0.1 0.1 0.1h0.1c0.1 0 0.1 0 0.2 0 0.3 0.1 0.7 0.1 0.7 0.5h0.1c0.4 0.1 0.7 0.1 1 0.2v-0.2q0.1 0 0.2-0.1c-0.4 0-0.8 0-1.2 0v-0.4c0 0 0 0 0.1 0 0 0 0.1-0.1 0.1-0.1-0.6 0.1-1.1 0-1.4 0zm-1.6-0.9c0.2 0.1 0.4 0.2 0.6 0.4l0.1 0.1q0.5 0.1 0.8 0.3c0 0 0 0 0.1 0v-0.3c1-0.2 4.1-0.1 7-0.1h0.4c-0.3-0.1-0.3-0.1-0.3-0.2l0.1-0.2c-1.4 0-2.6 0-3.1 0-0.2-0.1-0.6 0-0.9 0-0.4 0-0.8 0-1 0h-0.1c-0.6-0.1-1.3-0.1-2 0q-0.9 0.1-1.7 0zm3-3.6c-0.1 0-0.2 0-0.3 0.1q0.6-0.1 1.3-0.2h-0.1c-0.2 0-0.4 0-0.6 0-0.1 0.1-0.3 0.1-0.3 0.1zm-8.9 2.1l0.2 0.1 0.2-0.1q0.3-0.1 0.5-0.1c0.1 0 0.1-0.1 0.3-0.1l0.7-0.4c0.2 0 0.3-0.1 0.4-0.2 0.2-0.2 0.3-0.3 1-0.3 0.6 0.1 0.7 0.1 0.8 0 0.1 0 0.2-0.1 0.5-0.2 0.3-0.1 0.5-0.1 0.7-0.1 0.3 0 0.5 0 0.9-0.2 0.1-0.1 0.7-0.2 1.5-0.3-0.3 0-0.5 0-0.8 0.1-0.3 0-0.6 0-1 0.1l-2.7 0.4c-0.9 0.1-1 0.3-1.1 0.4-0.1 0-0.2 0.1-0.5 0.2-0.2 0-0.6 0-1 0-0.4 0-0.8 0-1.1 0q-0.5 0.1-0.9 0.3c-0.1 0.1-0.2 0.2-0.3 0.2 0.2 0.2 0.2 0.2 0.3 0.2 0 0 0.1-0.1 0.1-0.1 0.1 0 0.1 0 0.2 0 0.4-0.1 0.8-0.1 1.1 0.1zm4.9 7.5l-0.1 0.1c0 0 0 0 0 0 0.1 0.1 0.1 0.1 0.2 0.1 0-0.1-0.1-0.1-0.1-0.2zm-0.6-0.8c0 0 0 0.1 0 0.1 0.1 0 0.1 0.1 0.2 0.2v0.1l0.3 0.2h0.1c-0.1-0.1-0.1-0.1-0.2-0.2-0.1-0.2-0.2-0.3-0.4-0.4zm-3.2 0.1q-0.1 0-0.2 0h-0.1 0.2q0.1 0 0.1 0zm1.6-0.1c-0.1 0-0.1 0-0.2 0 0 0-0.1 0-0.1 0v0.1l-0.1 0.3c0.1-0.1 0.2-0.2 0.3-0.3zm0.4-0.3h-0.1v0.1q0.1-0.1 0.1-0.1zm0.6-0.2l-0.1 0.1c0.1 0 0.1 0 0.2 0 0 0-0.1 0-0.1-0.1zm-0.9-1v0.3c0.1 0 0.1 0.1 0.2 0.1v0.2q0.2 0 0.4 0.1c-0.2-0.2-0.4-0.4-0.6-0.7zm-0.1-0.2h-0.1c0 0 0 0-0.1 0h0.1c0.1 0.1 0.2 0.1 0.2 0.1zm-0.5-0.5q0 0-0.1 0.1c0.1 0 0.2 0 0.3 0q-0.1-0.1-0.2-0.1zm-0.4-0.4c0 0 0 0-0.1 0 0.1 0 0.1 0 0.2 0q-0.1 0-0.1 0zm-4.3-2.3h-0.1q-0.1 0.1-0.4 0.1-0.1 0-0.2 0-0.2 0-0.4 0-0.2 0-0.5 0-0.3 0-0.6 0c-0.4 0-0.8 0-1.2 0h0.1l-0.1 0.2c0 0.1-0.1 0.1-0.1 0.1 0.8 0.1 2.3 0.1 3.2 0.1q0.4 0 0.6 0l0.1 0.3v0.1c0 0 0 0-0.1 0q0 0.1-0.1 0.1h0.2l-0.2 0.3q0 0-0.1 0.1c-0.1 0-0.1 0-0.1 0 0.2 0 0.5 0 0.7 0 0.2 0 0.4 0.1 0.6 0.1 0.2 0 0.4 0 0.6 0 0.4 0 0.7 0.1 0.8 0.1v0.3c0.6 0 1.1 0 1.4 0-0.1-0.1 0-0.2 0.1-0.2 0 0 0 0-0.1-0.1q0 0 0-0.1c0 0-0.1 0-0.1-0.1 0-0.1-0.2-0.2-0.2-0.3-0.5-0.4-0.9-0.4-1.3-0.4-0.7 0-1.4 0-2.5-0.7zm-2.2 1c-0.3 0-0.6 0-0.7 0 0.2 0 0.5 0 0.7 0zm0.2 0.4q-0.2 0-0.3 0c0 0 0 0 0 0q0.2 0 0.3 0zm-2.1-2.8c-0.3 0-0.6 0-0.9 0 0.3 0 0.6 0.1 0.9 0zm5-1c-0.3 0.1-0.9 0.1-1.5 0.2 0 0 0.1 0 0.1 0h0.1c0 0 0 0.1 0 0.1l-0.1 0.3h-2.4l1.3 0.1 0.1 0.4h-0.1q-0.2 0-0.4 0.1h0.3l-0.3 0.3q0 0.1-0.2 0.1c0.3 0 0.5 0 0.8 0.2l-0.1 0.3c0.4 0 0.7 0 1 0v-0.1l0.2-0.7v-0.1h0.1q0.5-0.1 1-0.1c0 0 0 0.1 0 0l-0.1-0.1v-0.1c0 0-0.1-0.1-0.2-0.2l-0.2-0.1q0 0-0.1-0.1l-0.2-0.2 0.3-0.1c0.3-0.1 0.5-0.2 0.6-0.2zm-5.1-0.4q-0.1 0-0.2-0.1c-0.3 0-0.4 0-0.6 0.1q0.4 0 0.8 0zm6.2 0c-0.2 0-0.4 0-0.7 0-0.1 0-0.2 0-0.3 0v0.3c0.3-0.1 0.6-0.2 1-0.3zm-7.4-0.6q-0.6 0-1 0h0.1 0.3 0.4zm10.3 0.1c-0.5 0.1-1.4 0.1-2.2 0.1v0.3c0 0-0.2 0-0.4 0.1 0.2 0 0.5 0 0.7 0 0.4 0 0.7 0 1-0.1 0.1 0 0.2-0.1 0.3-0.1 0.1-0.1 0.2-0.2 0.6-0.3zm-9.5-0.6c-0.5 0-1 0-1.5 0 0.4 0 0.9 0 1.5 0zm12.5 0.1h-0.2c-0.3 0-0.7 0-1.1 0-0.4 0-0.8 0.1-1.2 0.1l0.1 0.3c-0.1 0-0.1 0-0.1 0 0 0 0.1 0 0.2 0zm-16.2-3.1q-0.1-0.1 0 0zm-0.4 0.1c0 0 0 0.2 0 0.1q0 0 0-0.1zm0.7-1.9c0 0 0-0.1 0-0.2q0 0.1-0.1 0.1v0.1c0 0 0 0 0.1 0zm4.1-1.4l0.3 0.2c0-0.1 0-0.1 0.1-0.2 0 0 0 0 0 0-0.1 0-0.2 0-0.2 0l-0.1-0.1c0 0.1-0.1 0.1-0.1 0.1zm0.5 1.3v-0.2c0 0 0 0 0 0l-0.1 0.1q-0.1 0.1-0.1 0.2c0 0.1-0.1 0.2 0 0.3q0 0.1 0.1 0.1 0.1 0 0.1 0 0 0 0-0.1 0-0.1 0-0.4zm0.2-1.5c0-0.1 0-0.1 0-0.1h-0.1zm2.2 0.3c0 0 0-0.1 0.1-0.1 0 0-0.1 0-0.1 0.1zm0.5-0.3l0.1-0.1q-0.1 0.1-0.2 0.1-0.1 0-0.2 0.1 0 0 0.1 0 0.1 0 0.1 0 0.1 0 0.1-0.1zm-0.5 0.5h0.1l0.2 0.1 0.1-0.1c-0.1 0-0.1 0-0.2 0-0.1 0-0.1 0-0.2 0zm-1.8-0.1l0.2 0.1c0.1 0 0.1 0 0.2 0.1l-0.1-0.1 0.3-0.1c0 0 0.1 0 0.1 0l0.2-0.1c-0.1-0.1-0.1-0.1-0.2-0.2 0 0 0.1 0.1 0 0.1q0 0-0.1 0c0 0-0.1 0-0.2 0.1-0.1 0-0.3 0-0.3 0h-0.2zm0.7 1.7q0.1-0.2 0.1-0.6l-0.1 0.1q-0.2-0.1-0.2-0.1c0 0 0 0.1 0.1 0.2v0.1c0 0.1 0 0.1 0 0.2 0.1 0 0.1 0 0.1 0.1zm2.1-0.5c0-0.1 0-0.1 0-0.2l-0.1-0.1-0.4-0.2h-0.1c-0.3 0.2-0.3 0.2-0.5 0.1 0 0 0 0.1 0 0.1 0 0.1 0 0.2 0 0.4v0.1c0 0.2 0 0.3 0 0.4q0-0.1 0.3-0.4l0.2-0.1 0.1 0.2c0.1 0.1 0.1 0.2 0.1 0.3 0.1 0 0.1 0.1 0.2 0.2 0 0 0 0 0 0q0 0 0-0.1 0-0.2 0-0.3 0 0 0-0.1c0 0 0 0 0-0.1 0.1 0 0.1-0.1 0.2-0.2zm-0.9 0.8q0 0 0 0zm1.9-2.1q0.2-0.1 0.4-0.3-0.4 0.2-0.6 0.4 0.1 0 0.2-0.1zm5.3 0.6l-0.5-0.1c0.1 0.1 0.3 0.1 0.5 0.1zm3.6 1.6l0.1-0.1q-0.2 0.1-0.2 0.1c0 0 0.1 0 0.1 0zm-0.2 0.9c0-0.1 0.1-0.3 0.1-0.4l-0.1 0.1q0 0.1 0 0.2 0 0.1 0 0.1z"/></g></g><path fill-rule="evenodd" class="e" d="m210.9 29.2l-2.2-0.7-1.9 3.7 2.1 3.9 5.2 3.4h2.4l3-1.5 2.5-1.5 1.6-2.5 0.3-2.4-1.1-1.9-1.7-0.1h-1.2l-3 0.9-0.8 1-1 0.9-2.1-1.9z"/><path fill-rule="evenodd" class="f" d="m216.2 30.4c2.2-0.9 5.2-2.3 7.7-0.5 2.4 1.6 2 4.7 0.2 6.7-1.1 1.4-3.8 3-6 3.9-1.7 0.7-2 0.9-3.9 0.4-1.2-0.4-2.6-0.9-3.6-1.5-5.5-3.2-6.6-7.7-2.9-12.8 1.4-1.9 3.3-3.3 4.9-5 1.1-1.3 3.6-3.9 3.6-6.5-1.1 1.8-0.9 1.8-2.7 3.4-1.1 0.9-2.3 1.8-3.4 2.6-2.2 1.6-4.8 3.7-6.2 6.2-3.8 6.5 0.1 12.4 7 14.7 0.9 0.3 3.9 1.2 4.9 1.2 1.1 0 3.9-0.9 4.9-1.3 3-1.2 5.6-2.9 7-5.2 1.9-3.2 1.5-7.1-1.8-8.2-2.9-1-8.2 0.2-9.7 1.9z"/><path fill-rule="evenodd" class="g" d="m219 29.8c5.6 0.3 4.3 4.7 1.1 7.1-0.8 0.5-3.5 2.2-4.6 2.1-1.5-0.2-3.9-1.4-4.8-2.2-3.4-2.7-2.5-6.2-0.3-9.4 1.5-2.2 5.1-5.2 5.4-8.4-3.7 5.8-11.5 8.8-9.3 15.3 1 2.8 4.4 4.7 7 5.7 1.3 0.5 1.8 0.9 3.2 0.4 12.5-4.4 8.6-13 2.3-10.6z"/><path fill-rule="evenodd" class="g" d="m209 32.1c1.8-2.9 6.3-3.2 7.4-8.2 0.2-1.1 0.2-3.7-0.2-4.8-0.4 3.4-1.2 5.2-3 7.2-1.1 1.2-4.4 3.7-4.2 5.8z"/><path fill-rule="evenodd" class="f" d="m212.7 45h5.9v-1.2h-5.9z"/><path fill-rule="evenodd" class="f" d="m213.6 46.6h4.1v-1.2h-4.1z"/><path class="h" d="m235.7 24l0.8-0.2 1-1.1 0.2 0.5-0.7 0.7 0.9 0.3 0.1 0.4-1.4-0.4-0.8 0.2zm-0.5-1.9l1.6-0.5-0.2-0.6 0.4-0.1 0.5 1.6-0.3 0.1-0.2-0.6-1.7 0.5zm-0.5-1.2l2-0.8 0.2 0.4-2 0.8zm-0.7-1.6l1.9-0.9 0.1 0.4-1.5 0.7 0.4 1-0.3 0.1zm-0.1-0.2l-0.2-0.4 0.3-0.4-0.4-0.7-0.5 0.1-0.3-0.4 2.3-0.4 0.2 0.4zm0.3-1.1l0.6-0.6-0.9 0.1zm-2.4-2.1l1.7-1.2 0.9 1.2-0.3 0.2-0.6-0.9-0.4 0.3 0.6 0.8-0.3 0.2-0.6-0.8-0.5 0.3 0.7 1-0.3 0.2zm-1.4-1.7l1.6-1.4 0.6 0.7q0.2 0.2 0.3 0.4 0 0.1 0 0.3-0.1 0.2-0.2 0.3-0.2 0.2-0.4 0.2-0.2 0-0.4-0.2 0 0.1 0 0.3 0 0.1-0.1 0.4l-0.2 0.5-0.3-0.4 0.1-0.6c0.1-0.2 0.1-0.3 0.1-0.3 0-0.1 0-0.1 0-0.2q0-0.1-0.1-0.2h-0.1l-0.6 0.5zm1.2-0.4l0.2 0.2c0.1 0.2 0.2 0.2 0.2 0.3 0.1 0 0.1 0 0.2 0 0 0 0.1 0 0.1-0.1q0.1 0 0.1-0.1 0-0.1 0-0.2-0.1 0-0.2-0.2l-0.3-0.3zm-2.9-2.5q0.2-0.2 0.5-0.3c0.1-0.1 0.2-0.1 0.3-0.1q0.2 0 0.3 0c0.2 0 0.3 0.1 0.4 0.2q0.4 0.3 0.4 0.7 0.1 0.4-0.3 0.8-0.3 0.4-0.7 0.5-0.4 0-0.8-0.3-0.3-0.3-0.4-0.7 0-0.4 0.3-0.8zm0.4 0.3c-0.2 0.2-0.2 0.4-0.2 0.5q0 0.3 0.2 0.4c0.1 0.1 0.2 0.2 0.4 0.2q0.2-0.1 0.5-0.4 0.2-0.3 0.2-0.5 0-0.3-0.2-0.4c-0.1-0.1-0.3-0.2-0.4-0.1-0.2 0-0.3 0.1-0.5 0.3zm-2.1-0.2l1-1.4-0.5-0.4 0.2-0.3 1.4 1-0.2 0.3-0.5-0.4-1 1.5zm-2.2-1.4l1-1.8 0.4 0.2 0.1 1.7 0.7-1.3 0.3 0.2-1 1.9-0.4-0.2-0.1-1.7-0.6 1.2zm-0.8-0.3l1-1.9 0.3 0.2-0.9 1.9zm-2.5-1.7l0.4 0.1c0 0.1 0 0.2 0 0.3 0.1 0.1 0.2 0.1 0.3 0.2q0.2 0 0.3 0c0.1 0 0.2-0.1 0.2-0.2 0 0 0-0.1 0-0.1 0 0-0.1-0.1-0.1-0.1q-0.1-0.1-0.3-0.2-0.3-0.2-0.4-0.4c-0.1-0.1-0.1-0.3-0.1-0.4q0.1-0.2 0.2-0.3 0.1-0.1 0.3-0.1c0.1 0 0.3 0 0.4 0q0.4 0.1 0.6 0.4c0.1 0.2 0.1 0.3 0 0.5l-0.4-0.1q0.1-0.2 0-0.3c0 0-0.1-0.1-0.2-0.1q-0.2-0.1-0.3-0.1-0.1 0.1-0.1 0.1c0 0.1 0 0.1 0 0.2 0 0 0.1 0.1 0.3 0.2q0.3 0.2 0.4 0.3 0.2 0.1 0.2 0.3c0 0.1 0 0.2 0 0.3q-0.1 0.2-0.2 0.3c-0.1 0.1-0.2 0.2-0.4 0.2-0.1 0-0.3 0-0.4-0.1q-0.4-0.1-0.6-0.4-0.2-0.2-0.1-0.5zm-2.5 0l0.4-2.1 0.7 0.2v1.5l0.7-1.4 0.6 0.2-0.4 2-0.4-0.1 0.3-1.6-0.8 1.5-0.4-0.1v-1.7l-0.4 1.6zm-0.2 0l-0.4-0.1-0.2-0.5-0.8-0.1-0.2 0.5-0.5-0.1 1.1-2 0.4 0.1zm-0.6-0.9l-0.2-0.8-0.4 0.7zm-3.2 0.6v-2.1h1.6v0.4h-1.1v0.4h1v0.4h-1v0.5l1.1 0.1v0.3zm-2.1 0.2l-0.1-2.1 0.9-0.1q0.3 0 0.5 0 0.1 0.1 0.2 0.2 0.1 0.1 0.1 0.3 0 0.3-0.1 0.4-0.1 0.2-0.4 0.3 0.2 0 0.3 0.1 0.1 0.1 0.2 0.4l0.3 0.4h-0.5l-0.3-0.4q-0.2-0.3-0.2-0.3c-0.1-0.1-0.1-0.1-0.2-0.1 0 0-0.1 0-0.2 0h-0.1l0.1 0.9zm0.3-1.3h0.3q0.3 0 0.4-0.1 0.1 0 0.1-0.1 0 0 0-0.1 0-0.1 0-0.2-0.1-0.1-0.2-0.1 0 0-0.3 0l-0.3 0.1zm-2.9-0.5l0.8-0.2q0.2 0 0.4 0c0.1 0 0.2 0.1 0.3 0.1q0.2 0.1 0.3 0.3 0.1 0.2 0.2 0.5 0 0.3 0 0.5c-0.1 0.1-0.1 0.3-0.2 0.4-0.1 0.1-0.1 0.1-0.3 0.2-0.1 0-0.2 0.1-0.3 0.1l-0.8 0.1zm0.5 0.3l0.2 1.4 0.3-0.1c0.1 0 0.2 0 0.3-0.1q0.1 0 0.1-0.1c0.1 0 0.1-0.1 0.1-0.2q0-0.2 0-0.4c-0.1-0.2-0.1-0.3-0.1-0.4q-0.1-0.1-0.2-0.1-0.1-0.1-0.2-0.1c-0.1 0-0.2 0-0.4 0zm-2.4 1.6l-0.1-0.3 0.9-0.3 0.2 0.8c0 0.1-0.1 0.3-0.3 0.4q-0.2 0.1-0.4 0.2-0.3 0.1-0.6 0.1c-0.2-0.1-0.4-0.2-0.5-0.3q-0.2-0.2-0.3-0.5c-0.1-0.2-0.1-0.4 0-0.6q0-0.3 0.2-0.5c0.1-0.1 0.3-0.2 0.5-0.3 0.2 0 0.4-0.1 0.6 0q0.2 0.1 0.4 0.3l-0.4 0.2q-0.1-0.1-0.2-0.1-0.1-0.1-0.3 0-0.3 0.1-0.4 0.3-0.1 0.2 0 0.5c0.1 0.3 0.2 0.4 0.3 0.5q0.2 0.2 0.5 0.1 0.1-0.1 0.2-0.2 0.1-0.1 0.2-0.2l-0.1-0.2zm-2.6 1.9l-0.9-2 0.4-0.1 1.3 0.9-0.5-1.3 0.3-0.2 0.9 2-0.4 0.1-1.3-0.9 0.5 1.3zm-0.7 0.4l-1-1.9 0.4-0.2 1 1.9zm-2.1 1.3l-1.2-1.8 0.6-0.3 1.1 1-0.5-1.4 0.6-0.4 1.1 1.8-0.3 0.2-0.9-1.4 0.5 1.6-0.3 0.3-1.3-1.2 0.9 1.4zm-1.6 1.3l-1.3-1.7 0.7-0.6c0.1-0.1 0.3-0.2 0.4-0.2q0.1-0.1 0.3 0 0.2 0 0.3 0.2 0.1 0.2 0.1 0.4 0 0.2-0.2 0.4 0.2 0 0.3 0c0.1 0 0.3 0 0.4 0.1l0.5 0.2-0.4 0.3-0.5-0.2c-0.2-0.1-0.3-0.1-0.4-0.1-0.1 0-0.1 0-0.2 0 0 0-0.1 0.1-0.2 0.1v0.1l0.5 0.7zm-0.4-1.3l0.2-0.2c0.2-0.1 0.3-0.2 0.3-0.2 0.1-0.1 0.1-0.1 0.1-0.2 0 0-0.1-0.1-0.1-0.1q-0.1-0.1-0.2-0.1-0.1 0-0.1 0c-0.1 0-0.1 0.1-0.3 0.2l-0.3 0.2zm-2 2.1c-0.2-0.1-0.3-0.3-0.3-0.4-0.1-0.1-0.1-0.3-0.1-0.4q0-0.2 0.1-0.3 0.1-0.2 0.2-0.4 0.4-0.3 0.8-0.3 0.4 0 0.8 0.4c0.2 0.3 0.3 0.5 0.3 0.8 0 0.3-0.1 0.5-0.3 0.7q-0.4 0.3-0.8 0.3c-0.2 0-0.5-0.1-0.7-0.4zm0.3-0.3q0.3 0.3 0.5 0.3 0.3 0 0.5-0.1c0.1-0.1 0.2-0.3 0.1-0.4q0-0.3-0.2-0.5-0.3-0.3-0.5-0.3c-0.2 0-0.4 0-0.5 0.1q-0.2 0.2-0.2 0.5 0.1 0.2 0.3 0.4zm-0.7 2.4l-1.6-1.4 1-1.1 0.2 0.3-0.6 0.7 0.3 0.4 0.6-0.7 0.3 0.2-0.6 0.7 0.7 0.6zm-1.8 1.3l0.2-0.4c0.1 0.1 0.2 0.1 0.3 0.1 0.1-0.1 0.2-0.1 0.3-0.2 0.1-0.1 0.1-0.2 0.1-0.3q0-0.2-0.1-0.2c0-0.1-0.1-0.1-0.1-0.1q-0.1 0-0.2 0.1 0 0-0.3 0.2c-0.1 0.2-0.3 0.3-0.4 0.3q-0.3 0-0.5-0.1c-0.1-0.1-0.2-0.1-0.2-0.3q0-0.1 0-0.3c0-0.1 0.1-0.2 0.2-0.4 0.1-0.2 0.3-0.3 0.5-0.4q0.2 0 0.5 0.1l-0.3 0.4c-0.1 0-0.1-0.1-0.2 0-0.1 0-0.2 0-0.3 0.1q-0.1 0.2-0.1 0.3 0.1 0.1 0.1 0.1c0 0.1 0.1 0.1 0.1 0.1q0.1-0.1 0.4-0.3 0.2-0.2 0.4-0.3 0.1 0 0.3 0c0.1 0 0.2 0 0.3 0.1q0.2 0.1 0.2 0.3c0.1 0.1 0.1 0.2 0.1 0.3q-0.1 0.2-0.2 0.5c-0.2 0.2-0.4 0.3-0.5 0.4q-0.3 0.1-0.6-0.1zm-0.4 2.2l-1.9-1.1 0.2-0.4h1.7l-1.2-0.7 0.2-0.3 1.8 1-0.2 0.4h-1.6l1.2 0.7zm-0.1 0.3l-0.2 0.4h-0.5l-0.4 0.7 0.4 0.4-0.2 0.4-1.6-1.7 0.2-0.4zm-1.1 0.4l-0.8-0.1 0.6 0.6zm-0.4 3.4l-2-0.7 0.3-0.8c0.1-0.2 0.1-0.4 0.2-0.5 0.1-0.1 0.2-0.1 0.3-0.1 0.1-0.1 0.2-0.1 0.3 0q0.2 0.1 0.3 0.3c0.1 0.1 0.1 0.2 0.1 0.4 0 0 0.1-0.1 0.2-0.1q0.1-0.1 0.4-0.2l0.5-0.1-0.2 0.5-0.5 0.1c-0.2 0.1-0.3 0.1-0.4 0.1q-0.1 0.1-0.1 0.1-0.1 0.1-0.1 0.2l-0.1 0.1 0.9 0.3zm-1.1-0.8l0.1-0.3q0.1-0.3 0.1-0.4 0-0.1 0-0.1 0-0.1-0.1-0.1-0.1-0.1-0.2 0-0.1 0-0.2 0.1c0 0.1 0 0.2-0.1 0.3l-0.1 0.3zm0.8 2.2l-1.7-0.4-0.2 0.6-0.3-0.1 0.3-1.6h0.4l-0.1 0.6 1.7 0.4z"/><path class="i" d="m215.1 9.8c5.2 0 9.9 2.1 13.4 5.5 3.4 3.4 5.5 8.2 5.5 13.4 0 5.2-2.1 9.9-5.5 13.4-3.5 3.4-8.2 5.5-13.4 5.5-5.3 0-10-2.1-13.5-5.5-3.4-3.4-5.5-8.2-5.5-13.4 0-5.2 2.1-9.9 5.5-13.4 3.5-3.4 8.2-5.5 13.5-5.5zm0 0.5c-5.1 0-9.8 2.1-13.1 5.4-3.3 3.3-5.4 7.9-5.4 13 0 5 2.1 9.6 5.4 13 3.3 3.3 8 5.4 13.1 5.4 5.1 0 9.7-2.1 13-5.4 3.3-3.3 5.4-7.9 5.4-13 0-5.1-2.1-9.7-5.4-13-3.3-3.3-8-5.4-13-5.4z"/><path class="e" d="m236.7 33.4l0.1-0.8 1-0.4-0.8-0.7 0.1-0.8 1.3 1.1 1.1 0.2-0.1 0.8-1.1-0.2zm-0.7 2.5l0.6-2.4 0.7 0.2-0.2 0.8 1.8 0.5-0.2 0.8-1.8-0.5-0.2 0.7zm-0.5 1.2l0.3-0.7 2.4 0.9-0.3 0.7zm0.3 3.4l0.3-0.7c0.1 0 0.2 0.1 0.3 0q0.2 0 0.3-0.2c0-0.1 0-0.2 0-0.3q0-0.1-0.1-0.1-0.1-0.1-0.2 0-0.1 0-0.3 0.3c-0.3 0.2-0.5 0.4-0.7 0.5q-0.3 0.1-0.5 0c-0.1-0.1-0.2-0.2-0.3-0.3q-0.1-0.2-0.1-0.4 0-0.3 0.2-0.6 0.2-0.5 0.5-0.6c0.2-0.1 0.4-0.1 0.7 0l-0.3 0.7q-0.2-0.1-0.3 0-0.1 0-0.2 0.2c-0.1 0-0.1 0.1-0.1 0.2q0 0.1 0.1 0.1 0.1 0.1 0.2 0 0 0 0.2-0.2 0.3-0.4 0.5-0.6 0.2-0.1 0.4-0.1c0.1 0 0.3 0 0.4 0 0.1 0.1 0.3 0.2 0.3 0.4 0.1 0.1 0.2 0.3 0.1 0.5q0 0.2-0.2 0.6-0.3 0.6-0.6 0.7c-0.2 0-0.4 0-0.6-0.1zm-0.9 2.9l-2.2-1.3 0.7-1.2c0.2-0.2 0.3-0.3 0.4-0.4q0.2-0.1 0.4-0.1 0.2 0 0.4 0.1c0.1 0.1 0.2 0.2 0.3 0.3 0 0.1 0 0.2 0 0.3q0 0.1 0 0.3 0.1-0.1 0.2-0.1c0 0 0.1-0.1 0.1-0.1q0.2 0 0.2 0l0.9 0.1-0.5 0.8-0.9-0.1c-0.1 0-0.2 0-0.2 0-0.1 0.1-0.1 0.1-0.2 0.2l0.9 0.6zm-0.9-1.5l0.2-0.3c0 0 0-0.1 0-0.2 0.1-0.1 0.1-0.1 0-0.2q0-0.1-0.1-0.1c0 0-0.1-0.1-0.2 0q-0.1 0-0.2 0.2l-0.2 0.3zm-3.1 2.1l1.4-1.6 0.4 0.3-0.8 1.1 0.3 0.2 0.8-0.9 0.4 0.3-0.8 1 0.4 0.3 0.9-1.1 0.4 0.4-1.4 1.7zm-2.2 2l0.6-0.5 1.7 1-0.8-1.8 0.6-0.5 1 2.6-0.7 0.5zm-1 0.8l0.6-0.5 1.5 2.1-0.6 0.5zm-2.7 1.6l0.7-0.4 1.5 0.7-0.7-1.2 0.7-0.4 1.3 2.3-0.7 0.3-1.5-0.7 0.7 1.2-0.7 0.4zm-1.2 0.6l0.8-0.3 0.5 1.4q0.1 0.2 0.1 0.4 0 0.2 0 0.4-0.1 0.2-0.3 0.4c-0.1 0.1-0.2 0.2-0.5 0.3-0.1 0-0.2 0.1-0.4 0.1-0.1 0-0.2 0.1-0.4 0-0.1 0-0.2 0-0.3-0.1q-0.2-0.1-0.3-0.2c-0.1-0.1-0.2-0.2-0.2-0.3l-0.6-1.5 0.8-0.3 0.6 1.5q0 0.2 0.2 0.3 0.1 0 0.3 0c0.2-0.1 0.2-0.2 0.3-0.3 0-0.1 0-0.2 0-0.3zm-5 1.5l0.8-0.2 0.4 1.9 1.2-0.2 0.1 0.6-2 0.5zm-2.5 0.3l0.8-0.1 0.3 1.9 1.2-0.1 0.1 0.6-2 0.3zm-1.5 0l0.8-0.1 0.1 2.6h-0.8zm-3.1-0.2l0.8 0.1-0.1 0.9 0.9 0.1 0.1-0.9h0.8l-0.3 2.6-0.8-0.1 0.1-1-0.8-0.1-0.1 1.1-0.8-0.1zm-2.9 1.6l-0.8-0.2-0.3 0.3-0.7-0.2 1.6-2.2 0.8 0.2 0.3 2.8-0.8-0.3zm-0.1-0.5v-1l-0.5 0.8zm-4.6-0.6l1.1-2.4 1.2 0.6q0.4 0.2 0.5 0.3 0.2 0.1 0.2 0.3 0.1 0.2 0 0.5-0.1 0.2-0.3 0.3-0.1 0.1-0.3 0.1-0.1 0-0.3 0c0.1 0 0.1 0.1 0.1 0.1 0.1 0.1 0.1 0.1 0.1 0.2q0 0.2 0 0.2l0.1 0.8-0.9-0.3v-0.9c0-0.1-0.1-0.2-0.1-0.3q0-0.1-0.1-0.1h-0.1l-0.4 0.9zm1.3-1.1l0.3 0.2q0.1 0 0.2 0c0.1 0 0.1 0 0.2 0 0 0 0.1-0.1 0.1-0.1q0.1-0.1 0-0.2 0-0.1-0.2-0.2l-0.4-0.1zm-2.6-2.6l1.8 1-0.2 0.5-1.2-0.7-0.2 0.4 1.1 0.6-0.3 0.5-1.1-0.6-0.2 0.4 1.2 0.7-0.3 0.5-1.9-1.1zm-2.8-0.1l0.4 0.6c-0.2 0.1-0.3 0.2-0.5 0.2q-0.3 0.1-0.5 0-0.2 0-0.5-0.3c-0.2-0.2-0.3-0.4-0.4-0.5-0.1-0.2-0.1-0.4-0.1-0.7q0.1-0.3 0.4-0.7c0.3-0.3 0.6-0.5 0.9-0.5 0.3-0.1 0.6 0.1 1 0.3 0.2 0.2 0.4 0.5 0.4 0.7q0.1 0.3-0.1 0.7l-0.6-0.3q0-0.1 0-0.2 0-0.1 0-0.2-0.1-0.1-0.1-0.2-0.3-0.2-0.5-0.1-0.2 0.1-0.4 0.3c-0.2 0.2-0.3 0.4-0.3 0.6q0 0.2 0.2 0.3c0.1 0.1 0.2 0.2 0.3 0.2q0.2 0 0.4-0.2zm-1.3-3.3l0.5 0.6-1.9 1.7-0.5-0.5zm-2.1-2.5l0.5 0.7-0.7 0.5 0.6 0.7 0.7-0.5 0.5 0.6-2.1 1.6-0.5-0.6 0.8-0.7-0.5-0.7-0.8 0.7-0.5-0.7zm-1.4-2.2l0.7 1.2c0.1 0.3 0.2 0.5 0.1 0.7 0 0.2-0.2 0.3-0.4 0.4q-0.3 0.2-0.6 0.1c-0.2 0-0.4-0.2-0.6-0.5l-0.2-0.4-0.8 0.5-0.4-0.7zm-0.6 1.2l0.1 0.2c0.1 0.1 0.2 0.2 0.3 0.2 0 0.1 0.1 0.1 0.2 0 0.1 0 0.1-0.1 0.1-0.1q0.1-0.1 0-0.3l-0.1-0.2zm-2-1.6l-0.4-0.8-0.4 0.1-0.4-0.8 2.8-0.1 0.4 0.8-2 1.9-0.3-0.8zm0.4-0.3l0.7-0.7-0.9 0.1zm-2.4-3.9l2.5-0.7 0.3 1.3q0.1 0.4 0.1 0.6c0 0.1-0.1 0.2-0.1 0.3-0.1 0.1-0.2 0.2-0.4 0.3q-0.2 0-0.4 0c-0.1-0.1-0.2-0.1-0.3-0.2-0.1-0.1-0.1-0.1-0.2-0.2 0 0.1 0 0.1 0 0.2q0 0.1-0.1 0.2-0.1 0.1-0.1 0.1l-0.7 0.6-0.2-0.9 0.7-0.6c0.1 0 0.1-0.1 0.1-0.2q0.1-0.1 0-0.2l-1 0.2zm1.7 0.4l0.1 0.3q0 0.1 0.1 0.2 0.1 0.1 0.1 0.1 0.1 0.1 0.2 0 0.1 0 0.1-0.1 0.1-0.1 0-0.3l-0.1-0.3zm-1.2-2.6l0.6-0.1 0.2 1.2-1.1 0.2q-0.3-0.3-0.5-0.5-0.1-0.3-0.2-0.7c0-0.3 0-0.5 0.1-0.7 0-0.2 0.2-0.4 0.3-0.6 0.2-0.1 0.4-0.2 0.7-0.2q0.4-0.1 0.8 0c0.2 0.1 0.4 0.2 0.5 0.4 0.1 0.2 0.2 0.4 0.3 0.7 0 0.3 0 0.5 0 0.6q-0.1 0.2-0.2 0.4c-0.1 0.1-0.2 0.2-0.3 0.3l-0.3-0.7q0.2-0.1 0.2-0.2 0-0.1 0-0.3c0-0.2-0.1-0.3-0.2-0.4q-0.2-0.1-0.6-0.1-0.4 0.1-0.6 0.3c-0.1 0.1-0.1 0.3-0.1 0.5q0 0.1 0.1 0.2 0 0.1 0.1 0.3l0.3-0.1z"/><path class="e" d="m5.4 58.8v-3.9h1.6q0.6 0 1.1 0.2 0.4 0.3 0.7 0.7 0.2 0.4 0.2 1c0 0.4-0.1 0.8-0.2 1.1q-0.3 0.4-0.7 0.7-0.5 0.2-1.1 0.2h-1.6zm1-0.8h0.5c0.4 0 0.7-0.1 0.9-0.3q0.3-0.3 0.3-0.9 0-0.5-0.3-0.8-0.3-0.3-0.9-0.3h-0.5z"/><path class="e" d="m11.5 58.8v-3.9h3v0.8h-2v0.7h1.9v0.8h-1.9v0.8h2v0.8z"/><path class="e" d="m17.1 58.8v-3.9h0.9v1.5h1.7v-1.5h1v3.9h-1v-1.6h-1.7v1.6z"/><path class="e" d="m23.4 58.8v-3.9h1.7q0.5 0 0.8 0.1 0.4 0.2 0.6 0.5 0.2 0.3 0.2 0.7c0 0.3-0.1 0.5-0.2 0.7q-0.2 0.3-0.6 0.5l1 1.5h-1.1l-0.8-1.3h-0.7v1.3h-0.9zm0.9-2.1h0.7c0.2 0 0.4 0 0.5-0.1 0.2-0.1 0.2-0.3 0.2-0.5 0-0.1-0.1-0.3-0.2-0.4-0.1-0.1-0.3-0.1-0.5-0.1h-0.7z"/><path class="e" d="m31.9 58.8l-0.3-0.8h-1.5l-0.3 0.8h-0.9l1.5-3.9h1l1.5 3.9zm-1.5-1.5h0.9l-0.4-1.4z"/><path class="e" d="m35.2 58.8v-3.9h1.6q0.6 0 1.1 0.2 0.4 0.3 0.7 0.7 0.2 0.4 0.2 1c0 0.4-0.1 0.8-0.2 1.1q-0.3 0.4-0.7 0.7-0.5 0.2-1.1 0.2h-1.6zm1-0.8h0.6c0.3 0 0.6-0.1 0.8-0.3q0.3-0.3 0.3-0.9 0-0.5-0.3-0.8-0.3-0.3-0.8-0.3h-0.6z"/><path class="e" d="m42.1 58.7c-0.3-0.1-0.5-0.4-0.6-0.6q-0.2-0.4-0.2-1v-2.2h0.9v2.1q0 0.5 0.2 0.8 0.2 0.3 0.6 0.3 0.5 0 0.7-0.3 0.2-0.3 0.2-0.8v-2.1h0.9v2.2q0 0.6-0.2 1c-0.1 0.2-0.3 0.5-0.6 0.6-0.2 0.1-0.6 0.2-0.9 0.2q-0.6 0-1-0.2z"/><path class="e" d="m47.5 58.8v-3.9h0.9l1.7 2.5v-2.5h0.9v3.9h-0.9l-1.7-2.5v2.5z"/><path class="e" d="m57.1 57.4q-0.2-0.1-0.3-0.3c0-0.1-0.1-0.2-0.1-0.4q0-0.2 0.1-0.4 0.1-0.2 0.3-0.3 0.2-0.1 0.5-0.1 0.2 0 0.4 0.1 0.2 0.1 0.3 0.3 0.1 0.2 0.1 0.4 0 0.2-0.1 0.4-0.1 0.2-0.3 0.3c-0.1 0.1-0.3 0.2-0.4 0.2q-0.3-0.1-0.5-0.2z"/><path class="e" d="m64.1 58.8v-3.9h1.8q0.4 0 0.7 0.1c0.3 0.1 0.4 0.2 0.5 0.4q0.2 0.2 0.2 0.6 0 0.3-0.1 0.5c-0.1 0.1-0.3 0.2-0.5 0.3q0.4 0.1 0.6 0.4c0.1 0.1 0.1 0.3 0.1 0.5q0 0.4-0.1 0.6-0.2 0.3-0.5 0.4-0.4 0.2-0.8 0.2h-1.9zm1-3.2v0.8h0.7q0.3 0 0.5-0.1 0.1-0.1 0.1-0.3 0-0.4-0.6-0.4zm0 1.5v0.9h0.9c0.4 0 0.6-0.1 0.6-0.4q0-0.5-0.6-0.5h-0.9z"/><path class="e" d="m70 58.8v-3.9h0.9v1.5h1.7v-1.5h0.9v3.9h-0.9v-1.6h-1.7v1.6z"/><path fill-rule="evenodd" class="e" d="m77.2 54.9v3.9h-1v-3.9z"/><path class="e" d="m80.8 58.8h-0.9v-3.9h1l1.1 1.8 1.1-1.8h1.1v3.9h-0.9v-2.7l-1.3 2.1-1.3-2.1v2.7z"/><path class="e" d="m88.9 58.8h-0.9v-3.1h-1.3v-0.8h3.4v0.8h-1.2v3.1z"/><path class="e" d="m95.3 58.8l-0.2-0.8h-1.5l-0.3 0.8h-0.9l1.5-3.9h0.9l1.5 3.9zm-1.5-1.5h1l-0.5-1.4z"/><path class="e" d="m101.5 58v0.8h-2.8v-3.9h0.9v3.1z"/><path class="e" d="m107.4 57.4q-0.2-0.1-0.3-0.3c0-0.1-0.1-0.2-0.1-0.4q0-0.2 0.1-0.4 0.1-0.2 0.3-0.3 0.2-0.1 0.5-0.1 0.2 0 0.4 0.1 0.2 0.1 0.3 0.3 0.1 0.2 0.1 0.4 0 0.2-0.1 0.4-0.1 0.2-0.3 0.3c-0.1 0.1-0.3 0.2-0.4 0.2q-0.3-0.1-0.5-0.2z"/><path class="e" d="m114.4 58.8v-3.9h1v1.5h1.7v-1.5h0.9v3.9h-0.9v-1.6h-1.7v1.6z"/><path class="e" d="m123.4 58.8l-0.3-0.8h-1.5l-0.3 0.8h-0.9l1.5-3.9h1l1.5 3.9zm-1.5-1.5h0.9l-0.4-1.4z"/><path class="e" d="m129.6 58v0.8h-2.9v-3.9h0.9v3.1z"/><path class="e" d="m132.1 58.8v-3.9h1.5q0.6 0 1.1 0.2 0.4 0.3 0.7 0.7 0.2 0.4 0.2 1c0 0.4 0 0.8-0.2 1.1q-0.3 0.4-0.7 0.7-0.5 0.2-1.1 0.2h-1.5zm0.9-0.8h0.6c0.3 0 0.6-0.1 0.8-0.3q0.3-0.3 0.3-0.9 0-0.5-0.3-0.8-0.3-0.3-0.8-0.3h-0.6z"/><path class="e" d="m139 58.8l-1.1-3.9h1l0.6 2.5 0.7-2.5h0.8l0.8 2.5 0.6-2.5h1l-1.2 3.9h-0.8l-0.8-2.6-0.7 2.6z"/><path class="e" d="m148.4 58.8l-0.2-0.8h-1.5l-0.3 0.8h-0.9l1.5-3.9h0.9l1.5 3.9zm-1.5-1.5h1l-0.5-1.4z"/><path class="e" d="m151.8 58.8v-3.9h0.9l1.8 2.5v-2.5h0.9v3.9h-0.9l-1.8-2.5v2.5z"/><path fill-rule="evenodd" class="e" d="m159 54.9v3.9h-0.9v-3.9z"/><path class="e" d="m37.4 12.1v0.4q-1.2 0.3-1.6 0.8c-0.3 0.3-0.4 0.8-0.4 1.5v3.3q0 0.5 0 1c0.1 0.3 0.1 0.6 0.1 1-1.1 0.9-2.4 1.6-3.9 2q-2.2 0.7-4.9 0.7-5.4 0-8.7-2.8-3.2-2.9-3.2-7.7-0.1-4.6 3.3-7.5 3.3-2.8 8.8-2.8 2.4 0 4.7 0.6 2.2 0.6 4.2 1.8l-1.8 4.9-0.5-0.1q-0.4-3.2-2-4.7-1.6-1.5-4.2-1.5c-2.2 0-4 0.8-5.1 2.3-1.1 1.6-1.7 3.9-1.7 7.1q0 4.9 1.5 7.2 1.4 2.3 4.5 2.3c1.5 0 2.5-0.4 3.1-1.1q0.8-1.1 0.8-4 0-2.6-0.7-3.3-0.7-0.8-2.8-0.9v-0.4q1.3 0 2.6 0.1 1.3 0 2.7 0 1.2 0 2.5 0c0.8-0.1 1.7-0.2 2.7-0.2z"/><path class="e" d="m39.6 10.5c0-1.3-0.1-2.1-0.3-2.5-0.2-0.3-0.5-0.5-1.1-0.6v-0.4c1-0.1 1.9-0.3 2.9-0.4q1.4-0.3 2.8-0.6v3.3q0.7-1.7 1.6-2.5 0.9-0.8 2-0.8c0.2 0 0.3 0 0.4 0 0.1 0 0.3 0 0.4 0l-1.4 5.8q-0.2-0.8-0.5-1.2c-0.3-0.2-0.5-0.3-0.8-0.3q-0.9 0-1.3 1.5-0.4 1.6-0.4 5.2c0 1.7 0.1 2.9 0.3 3.6 0.3 0.7 0.6 1.2 1.2 1.3v0.4q-0.9-0.1-1.8-0.1c-0.6 0-1.2 0-1.8 0-0.6 0-1.2 0-1.8 0q-1 0-2 0.1v-0.4c0.6-0.2 1-0.7 1.2-1.4q0.4-1.1 0.4-4.6v-0.8z"/><path class="e" d="m57.4 10.8q0-1.9-0.6-2.9c-0.4-0.7-0.9-1-1.7-1q-1.1 0-2.1 1.3-0.9 1.3-1.7 4h-0.5l-1-4.7c0.9-0.5 1.9-0.9 2.9-1.1q1.5-0.4 3.1-0.4 3.1 0 4.5 1.6 1.3 1.6 1.3 5.5v5.9q0 1.1 0.3 1.7c0.1 0.4 0.4 0.7 0.7 1.1v0.4q-0.7 0-1.2 0-0.5 0-1 0c-0.3 0-0.5 0-0.9 0-0.3 0-0.8 0-1.4 0l-0.4-1.9q-0.7 1.3-1.7 1.9c-0.6 0.4-1.4 0.6-2.3 0.6-1.5 0-2.7-0.4-3.6-1.4q-1.4-1.4-1.4-3.6 0-2.6 2-3.9 1.9-1.4 5.7-1.4c0.2 0 0.5 0 0.6 0q0.2 0 0.4 0zm0 2.6q-2.1 0-3.1 1.2c-0.7 0.8-1 2-1 3.5q0 1.5 0.5 2.4c0.3 0.5 0.8 0.8 1.3 0.8q1.1 0 1.7-1.4c0.4-0.9 0.6-2.2 0.6-3.9v-2.6z"/><path class="e" d="m69.2 21.2v0.7q0 3.6 0.4 4.6c0.3 0.7 0.8 1.2 1.6 1.4v0.3q-1-0.1-2-0.1c-0.6 0-1.3 0-1.9 0-0.7 0-1.3 0-2 0-0.6 0-1.3 0.1-1.9 0.1v-0.3c0.5-0.3 1-0.7 1.2-1.5 0.2-0.7 0.3-2.2 0.3-4.5v-0.9-10.1c0-1.3-0.1-2.1-0.3-2.5q-0.3-0.5-1.1-0.6v-0.3c1-0.2 2-0.3 2.9-0.5q1.4-0.3 2.7-0.6v2.3c0.4-0.9 1-1.6 1.7-2q1-0.7 2.5-0.7c1.8 0 3.3 0.7 4.5 2.2 1.2 1.6 1.8 3.5 1.8 5.9q0 3.6-1.8 6c-1.2 1.6-2.7 2.4-4.5 2.4q-1.3 0-2.3-0.6-1.1-0.7-1.8-2v1.3zm2.9-0.2q1.4 0 2.2-1.7 0.8-1.7 0.8-4.7 0-3.5-0.7-5.3-0.8-1.8-2.2-1.8-1.5 0-2.2 1.7-0.8 1.8-0.8 5.1c0 2.2 0.3 3.8 0.8 5q0.7 1.7 2.1 1.7z"/><path class="e" d="m82 4.6c0-1.3-0.1-2.1-0.3-2.5q-0.3-0.5-1-0.6v-0.3c0.9-0.2 1.9-0.3 2.8-0.5q1.4-0.3 2.9-0.6v8.6q0.6-1.4 1.5-2c0.7-0.5 1.4-0.7 2.3-0.7q2.5 0 3.6 1.8 1.2 1.8 1.2 5.6v1.7q0 4.1 0.3 5.4c0.3 0.8 0.6 1.3 1.2 1.5v0.3c-0.6 0-1.2-0.1-1.7-0.1-0.6 0-1.2 0-1.8 0q-0.8 0-1.7 0c-0.6 0-1.2 0.1-1.7 0.1v-0.3c0.4-0.3 0.7-0.7 0.9-1.4 0.2-0.6 0.3-1.9 0.3-3.7v-1.8-1.4c0-2.1-0.2-3.6-0.5-4.6q-0.5-1.3-1.5-1.3c-0.7 0-1.3 0.5-1.7 1.5-0.4 1.1-0.7 2.5-0.7 4.4v1.4q0 4.3 0.3 5.4 0.2 1.2 1 1.5v0.3q-0.8-0.1-1.7-0.1c-0.5 0-1.1 0-1.7 0-0.6 0-1.2 0-1.8 0q-1 0-1.9 0.1v-0.3c0.5-0.3 1-0.8 1.2-1.5q0.3-1 0.3-4.5v-0.9-10.5z"/><path class="e" d="m98.2 10.5c0-1.3-0.1-2.1-0.3-2.5q-0.3-0.5-1-0.6v-0.3q1.3-0.2 2.7-0.5 1.4-0.3 2.9-0.6v10q0 3.5 0.3 4.6c0.2 0.7 0.6 1.2 1.1 1.4v0.3c-0.5 0-1.1-0.1-1.7-0.1-0.6 0-1.2 0-1.8 0-0.6 0-1.2 0-1.8 0q-0.9 0-1.9 0.1v-0.3c0.6-0.3 1-0.8 1.2-1.5q0.3-1 0.3-4.5v-0.9zm0-8q0-1 0.6-1.7c0.4-0.5 0.9-0.7 1.5-0.7 0.6 0 1.2 0.3 1.6 0.7q0.6 0.7 0.6 1.7 0 1-0.6 1.7-0.7 0.7-1.6 0.7-0.9 0-1.5-0.7-0.6-0.7-0.6-1.7z"/><path class="e" d="m116 12.6q-0.5-3-1.3-4.3-0.7-1.2-1.9-1.2c-1 0-1.8 0.6-2.5 2-0.7 1.3-1 3.1-1 5.2q0 3.4 1 5.1c0.6 1.2 1.5 1.8 2.8 1.8 0.7 0 1.4-0.3 2-0.9 0.7-0.6 1.2-1.4 1.6-2.5l0.8 0.3q-0.9 2.3-2.3 3.6c-1 0.8-2.1 1.2-3.4 1.2q-3 0-5-2.4c-1.3-1.7-2-3.7-2-6.2q0-3.7 2-5.9c1.4-1.5 3.2-2.3 5.4-2.3q1.5 0 2.8 0.5c0.9 0.3 1.7 0.8 2.5 1.4l-1.1 4.8z"/><path class="e" d="m126.6 22.3v-0.4q1.3-0.3 1.7-1.4 0.5-1.1 0.5-5.2v-10q0-1.1-0.4-1.6-0.4-0.6-1.4-0.8v-0.4q0.1 0 0.2 0 3.1 0.1 4.7 0.1h12.6l1.7 5-0.5 0.2c-1.2-1.4-2.7-2.5-4.3-3.2-1.6-0.6-3.5-1-5.6-1q-0.8 0-1.1 0-0.4 0-0.7 0.1v7.6q0.5 0 1 0 0.4 0 1 0 2.6 0 4.4-0.8 1.7-0.9 2.2-2.4h0.4v7.5h-0.4c-0.3-1.1-1.1-1.9-2.2-2.5q-1.8-0.8-4.5-0.8c-0.5 0-0.9 0-1.1 0-0.3 0-0.5 0-0.8 0v2.8q0 4.1 0.7 5.1c0.4 0.6 1.4 0.9 2.9 0.9q2.7 0 5-1.3c1.6-0.9 3.1-2.3 4.5-4.2l0.5 0.2-1.9 6.4h-12.6q-0.3 0-1 0-0.6 0-1 0-1.2 0-2.3 0-1.1 0-2.2 0.1z"/><path class="e" d="m149.5 10.5c0-1.3-0.1-2.1-0.3-2.5-0.2-0.3-0.5-0.5-1.1-0.6v-0.4c1-0.1 1.9-0.3 2.9-0.4q1.4-0.3 2.8-0.6v3.3q0.7-1.7 1.6-2.5 0.9-0.8 2-0.8c0.2 0 0.3 0 0.4 0 0.1 0 0.3 0 0.4 0l-1.4 5.8q-0.2-0.8-0.5-1.2c-0.3-0.2-0.5-0.3-0.8-0.3q-0.9 0-1.3 1.5-0.4 1.6-0.4 5.2c0 1.7 0.1 2.9 0.3 3.6 0.3 0.7 0.6 1.2 1.2 1.3v0.4q-0.9-0.1-1.8-0.1c-0.6 0-1.2 0-1.8 0-0.6 0-1.2 0-1.8 0q-1 0-2 0.1v-0.4c0.6-0.2 1-0.7 1.2-1.4q0.4-1.1 0.4-4.6v-0.8z"/><path class="e" d="m167.3 10.8q0-1.9-0.6-2.9c-0.4-0.7-0.9-1-1.6-1q-1.2 0-2.1 1.3-1 1.3-1.8 4h-0.5l-1-4.7c0.9-0.5 1.9-0.9 2.9-1.1q1.5-0.4 3.1-0.4 3.1 0 4.5 1.6 1.3 1.6 1.3 5.5v5.9q0 1.1 0.3 1.7c0.1 0.4 0.4 0.7 0.7 1.1v0.4q-0.7 0-1.2 0-0.5 0-1 0c-0.2 0-0.5 0-0.8 0-0.3 0-0.8 0-1.5 0l-0.4-1.9q-0.7 1.3-1.6 1.9c-0.7 0.4-1.5 0.6-2.4 0.6-1.4 0-2.7-0.4-3.6-1.4q-1.4-1.4-1.4-3.6 0-2.6 2-3.9 1.9-1.4 5.7-1.4c0.3 0 0.5 0 0.6 0q0.2 0 0.4 0zm0 2.6q-2.1 0-3.1 1.2c-0.7 0.8-1 2-1 3.5q0 1.5 0.5 2.4c0.3 0.5 0.8 0.8 1.3 0.8q1.1 0 1.7-1.4c0.4-0.9 0.6-2.2 0.6-3.9v-2.6z"/><path class="j" d="m6.6 38.5c0.2 0 0.5 0 0.9 0q0.5 0 1.9 0h2.3q0.6 0 1.4 0c0.4 0 0.9 0 1.5 0v-5.5q0-0.9-0.4-1.4-0.4-0.5-1.3-0.7v-0.4c0.7 0 1.3 0.1 2 0.1q1 0 2 0 1 0 2 0c0.6-0.1 1.3-0.1 2-0.1v0.4q-0.9 0.1-1.3 0.6-0.4 0.5-0.4 1.5v9.3c0 2.3 0.1 3.9 0.4 4.6q0.4 1.1 1.6 1.3v0.4c-0.6 0-1.2 0-1.8-0.1-0.7 0-1.5 0-2.5 0-1.1 0-1.9 0-2.5 0-0.6 0-1.2 0.1-1.8 0.1v-0.4c0.8-0.1 1.3-0.5 1.6-1.2 0.2-0.7 0.4-2.3 0.4-4.8v-2.7q-0.5 0-1 0c-0.4 0-1 0-1.9 0h-2.2c-0.8 0-1.5 0-1.8 0-0.4 0-0.7 0-1 0v2.7c0 2.5 0.1 4 0.4 4.7q0.4 1 1.6 1.3v0.4c-0.6 0-1.2 0-1.9-0.1-0.6 0-1.5 0-2.6 0q-1.5 0-2.4 0-0.9 0-1.7 0.1v-0.4c0.7-0.1 1.2-0.5 1.5-1.2 0.3-0.7 0.4-2.3 0.4-4.8v-9.2q0-0.9-0.4-1.4-0.3-0.5-1.2-0.8v-0.3c0.6 0 1.2 0 1.8 0q1 0.1 2 0.1 1 0 2-0.1c0.7 0 1.4 0 2 0v0.3c-0.6 0.1-1 0.4-1.2 0.7q-0.4 0.5-0.4 1.5z"/><path class="j" d="m27.8 34.1c-0.1 0.6-0.1 1.2-0.1 1.9 0 0.7 0 1.8 0 3.2v3.8q0 3.2 0.3 4.1c0.3 0.6 0.7 1 1.4 1.2v0.3c-0.4 0-0.9 0-1.4-0.1-0.6 0-1.4 0-2.4 0-0.9 0-1.6 0-2.1 0q-0.8 0-1.6 0.1v-0.3q1-0.4 1.4-1.3 0.4-0.9 0.4-3.8v-1.1-3.9q0-1.8-0.3-2.3c-0.2-0.3-0.6-0.5-1.2-0.5v-0.4c1.2-0.1 2.2-0.3 3.1-0.4q1.4-0.2 2.5-0.5zm-4.3-3.5q0-1 0.6-1.6c0.4-0.4 0.9-0.6 1.5-0.6 0.6 0 1.2 0.2 1.6 0.6 0.4 0.4 0.6 1 0.6 1.6q0 0.9-0.6 1.5c-0.4 0.5-1 0.7-1.6 0.7q-0.9 0-1.5-0.7-0.6-0.6-0.6-1.5z"/><path class="j" d="m32 32.5q0.1-1.8-0.3-2.3c-0.2-0.3-0.6-0.5-1.2-0.6v-0.3q1.6-0.2 3-0.4 1.4-0.3 2.6-0.6c-0.1 0.6-0.1 1.3-0.1 2.1 0 0.9 0 1.9 0 3v9.6q0 3.2 0.3 4.1c0.3 0.6 0.8 1 1.5 1.2v0.3c-0.5 0-1 0-1.5-0.1-0.6 0-1.4 0-2.4 0-0.9 0-1.6 0-2.1 0q-0.8 0-1.6 0.1v-0.3q1-0.4 1.4-1.3c0.3-0.6 0.4-1.8 0.4-3.8v-1.1-9.6z"/><path class="j" d="m40.4 32.5q0-1.8-0.3-2.3c-0.2-0.3-0.7-0.5-1.3-0.6v-0.3q1.7-0.2 3.1-0.4 1.4-0.3 2.5-0.6c0 0.6 0 1.3 0 2.1 0 0.9-0.1 1.9-0.1 3v9.6q0 3.2 0.4 4.1c0.3 0.6 0.7 1 1.4 1.2v0.3c-0.4 0-0.9 0-1.5-0.1-0.5 0-1.3 0-2.3 0-0.9 0-1.6 0-2.2 0q-0.8 0-1.5 0.1v-0.3q1-0.4 1.4-1.3c0.3-0.6 0.4-1.8 0.4-3.8v-1.1-9.6z"/><path class="j" d="m62.6 39q-0.1 2.4 0.1 3.9 0.1 1.5 0.4 2.2c0.4 0.9 0.9 1.6 1.7 2q1.1 0.7 2.9 0.7c1.8 0 3.3-0.5 4.2-1.6q1.5-1.7 1.5-4.8v-2.6q0-4.5-0.6-5.9-0.7-1.4-2.4-2v-0.4c0.7 0 1.3 0 1.9 0.1 0.5 0 1 0 1.4 0q0.8 0 1.8 0 0.9 0 2-0.1v0.3q-1.7 0.6-2.4 2c-0.4 1-0.7 3-0.7 6v2.5q0 4-2 5.9-2 1.9-6.1 1.9-2.3 0-3.9-0.5c-1.1-0.3-2-0.8-2.7-1.4q-1-0.9-1.4-2.2-0.4-1.3-0.4-3.8 0-1 0-2.3 0.1-1.4 0-1.8v-4.1q0-0.9-0.4-1.4c-0.2-0.3-0.6-0.6-1.2-0.7v-0.4q0.9 0.1 1.8 0.1 1 0 2 0 1.2 0 2.2 0c0.6-0.1 1.3-0.1 2-0.1v0.4c-0.6 0.1-1 0.3-1.3 0.6q-0.4 0.5-0.4 1.5v6z"/><path class="j" d="m81.9 36.2q0.6-1.3 1.5-1.9 0.9-0.6 2.1-0.6c1.5 0 2.6 0.6 3.3 1.7q1.1 1.6 1.1 5.1v1.6q0 3.7 0.3 4.8c0.2 0.8 0.5 1.2 1.1 1.4v0.3c-0.6 0-1.1 0-1.6-0.1-0.6 0-1.1 0-1.6 0-0.6 0-1.1 0-1.6 0q-0.8 0-1.6 0.1v-0.3c0.4-0.2 0.7-0.6 0.9-1.2q0.2-0.9 0.2-3.4v-1.6-1.3q0-2.9-0.4-4.2-0.4-1.2-1.4-1.2-1 0-1.6 1.4c-0.3 1-0.5 2.3-0.5 4v1.3q0 3.9 0.2 4.9 0.3 1 0.9 1.3v0.3c-0.5 0-1 0-1.5-0.1-0.5 0-1.1 0-1.6 0q-0.8 0-1.6 0-0.9 0-1.8 0.1v-0.3q0.8-0.3 1.1-1.3 0.3-1 0.3-4.2v-0.7-3.9q0-1.8-0.2-2.3-0.3-0.5-1-0.5v-0.3q1.3-0.2 2.6-0.5 1.3-0.2 2.5-0.5v2.1z"/><path class="j" d="m92.8 37.8q0-1.7-0.2-2.2c-0.2-0.3-0.5-0.5-1-0.6v-0.3q1.2-0.2 2.5-0.4 1.3-0.3 2.7-0.6v9.2q0 3.2 0.3 4.2 0.3 1 1 1.2v0.3c-0.6 0-1.1 0-1.6-0.1-0.6 0-1.1 0-1.7 0q-0.8 0-1.6 0-0.8 0-1.7 0.1v-0.3q0.8-0.3 1.1-1.3 0.3-1 0.3-4.2v-0.7-4.3zm0-7.3c0-0.6 0.2-1.1 0.5-1.5 0.4-0.4 0.9-0.7 1.4-0.7 0.5 0 1 0.2 1.4 0.7q0.6 0.6 0.6 1.5 0 0.9-0.6 1.6-0.6 0.6-1.4 0.6-0.8 0-1.4-0.6c-0.4-0.4-0.5-1-0.5-1.6z"/><path class="j" d="m107.2 37.7c0.1-0.3 0.2-0.6 0.3-0.9 0-0.3 0-0.5 0-0.8q0.1-0.7-0.3-1.1c-0.2-0.3-0.6-0.5-1.1-0.6v-0.3c0.5 0.1 0.9 0.1 1.3 0.1 0.5 0 0.9 0 1.3 0q0.7 0 1.4 0 0.6 0 1.3-0.1v0.3c-0.5 0.3-1 0.7-1.5 1.4q-0.8 1-1.5 2.5l-4.4 10.9h-0.2l-4.4-11.2c-0.1-0.1-0.1-0.1-0.1-0.2-0.9-2.2-1.6-3.3-2.2-3.4v-0.3c0.6 0.1 1.1 0.1 1.7 0.1 0.5 0 1.1 0 1.7 0q0.8 0 1.7 0 0.9 0 1.9-0.1v0.3q-0.6 0.3-0.9 0.7c-0.2 0.3-0.3 0.6-0.3 1 0 0.3 0 0.5 0.1 0.8q0.1 0.4 0.3 0.9l2.1 5.2z"/><path class="j" d="m114.7 39.8v0.8q0 3.4 1 5.1 0.9 1.7 2.9 1.7 1.4 0 2.4-1.3c0.7-0.9 1.2-2.1 1.5-3.6l0.7 0.5c-0.3 1.8-1.1 3.3-2.1 4.4q-1.7 1.6-4.1 1.6c-1.8 0-3.3-0.7-4.5-2.2-1.2-1.5-1.8-3.4-1.8-5.6 0-2.2 0.6-4 1.8-5.4 1.3-1.4 2.8-2.1 4.7-2.1q2.7 0 4.3 1.6c1.1 1.1 1.7 2.6 1.7 4.5h-8.5zm0.1-1.2h4.1q0-2-0.5-3-0.5-1.1-1.4-1.1-0.9 0-1.5 1.1c-0.4 0.7-0.6 1.7-0.7 3z"/><path class="j" d="m125.8 37.8q0-1.7-0.3-2.2c-0.2-0.3-0.5-0.5-1-0.6v-0.3q1.3-0.2 2.6-0.4c0.9-0.2 1.7-0.4 2.6-0.6v3.1c0.4-1 0.9-1.8 1.4-2.3 0.6-0.5 1.2-0.8 1.9-0.8q0.2 0 0.4 0c0.1 0 0.2 0.1 0.3 0.1l-1.2 5.2c-0.2-0.5-0.4-0.8-0.6-1q-0.3-0.4-0.7-0.4-0.8 0-1.1 1.5-0.4 1.4-0.4 4.7c0 1.5 0.1 2.6 0.3 3.2 0.2 0.7 0.5 1.1 1 1.2v0.3c-0.5 0-1 0-1.6 0-0.5 0-1-0.1-1.6-0.1q-0.8 0-1.7 0.1-0.8 0-1.7 0v-0.3q0.8-0.3 1.1-1.3 0.3-0.9 0.3-4.1v-0.8z"/><path class="j" d="m133.9 47.4l1.1-4.7 0.5 0.2q0.3 2.4 1.2 3.8c0.7 0.9 1.4 1.3 2.3 1.3q1 0 1.7-0.7 0.7-0.8 0.7-1.9 0-1-0.5-1.6c-0.3-0.3-1-0.7-2.1-1.1q-2.6-0.9-3.3-1.8-0.7-0.9-0.7-2.5c0-1.4 0.5-2.5 1.5-3.4 1-0.8 2.3-1.2 3.9-1.2q1.1 0 2.2 0.3c0.8 0.2 1.6 0.5 2.4 0.9l-1 3.8h-0.4q-0.2-2-1-3.1-0.7-1.1-1.9-1.1-0.9 0-1.4 0.7c-0.4 0.4-0.6 0.9-0.6 1.6q0 1.1 0.5 1.7 0.4 0.5 2.1 1 2.4 0.7 3.3 1.6 0.8 1 0.8 2.8 0 2.3-1.6 3.7-1.7 1.5-4.4 1.5-1.3 0-2.6-0.5c-0.9-0.3-1.9-0.8-2.7-1.3z"/><path class="j" d="m147.5 37.8q0-1.7-0.3-2.2c-0.2-0.3-0.5-0.5-1-0.6v-0.3q1.3-0.2 2.6-0.4 1.3-0.3 2.6-0.6v9.2q0 3.2 0.3 4.2 0.3 1 1 1.2v0.3c-0.5 0-1.1 0-1.6-0.1-0.5 0-1.1 0-1.6 0q-0.8 0-1.7 0-0.8 0-1.7 0.1v-0.3q0.8-0.3 1.1-1.3 0.3-1 0.3-4.2v-0.7-4.3zm0-7.3c0-0.6 0.2-1.1 0.6-1.5 0.3-0.4 0.8-0.7 1.3-0.7 0.6 0 1.1 0.2 1.4 0.7q0.6 0.6 0.6 1.5 0 0.9-0.6 1.6-0.6 0.6-1.4 0.6-0.8 0-1.3-0.6c-0.4-0.4-0.6-1-0.6-1.6z"/><path class="j" d="m158.6 41.8c0 2.5 0.1 4.1 0.4 4.9 0.3 0.8 0.7 1.3 1.5 1.6v0.3c-1.1 0-2.7 0-4.8-0.1q-0.6-0.3-0.9-1c-0.1-0.4-0.2-1.2-0.2-2.4q0-0.5 0-1.4 0.1-0.9 0.1-1.2v-7h-1.6l0.1-0.8q1.8-0.9 3-2.1c0.8-0.8 1.5-1.7 2.1-2.7h0.4q0 0.6 0 1.3-0.1 0.8-0.1 1.9v1.3h2l-0.3 1.1h-1.7v6.3z"/><path class="j" d="m169.8 37.7c0.1-0.4 0.2-0.7 0.3-1q0.1-0.4 0.1-0.7 0-0.7-0.4-1.1-0.3-0.4-1-0.6v-0.3c0.4 0.1 0.8 0.1 1.3 0.1 0.4 0 0.8 0 1.3 0q0.6 0 1.3 0 0.6 0 1.3-0.1v0.3c-0.6 0.4-1.2 0.9-1.7 1.6q-0.7 1-1.2 2.3l-3 8.2q-1.7 4.5-2.9 6-1.3 1.6-2.9 1.6-0.2 0-0.4-0.1c-0.1 0-0.2 0-0.4-0.1l1.4-4.9 0.4 0.1q0.1 0.9 0.4 1.2c0.2 0.3 0.5 0.4 0.8 0.4 0.4 0 0.7-0.2 1-0.5q0.4-0.5 0.4-1.3c0-0.2-0.1-0.5-0.1-0.7 0-0.2-0.2-0.6-0.3-1l-3.9-10.6c-0.3-0.7-0.6-1.3-0.9-1.6q-0.4-0.6-0.9-0.6v-0.3c0.6 0 1.1 0 1.7 0.1 0.5 0 1.1 0 1.6 0q0.9 0 1.8 0 0.9 0 1.8-0.1v0.3c-0.4 0.2-0.7 0.5-0.9 0.7q-0.3 0.4-0.3 1c0 0.2 0.1 0.5 0.1 0.7q0.1 0.4 0.3 0.9l2.2 5.5z"/></svg>